<svg xmlns="http://www.w3.org/2000/svg" viewBox="0 0 73.23 73.23"><defs><style>.cls-1{fill:#fff;}.cls-2{fill:#88a5c0;}.cls-3{fill:#6b869b;}</style></defs><g id="Слой_2" data-name="Слой 2"><g id="Слой_1-2" data-name="Слой 1"><path class="cls-1" d="M73.23,36.61A36.62,36.62,0,1,1,36.65,0,36.66,36.66,0,0,1,73.23,36.61ZM56.63,19.67a2,2,0,0,0-2.72-2.12c-.23.07-.46.14-.68.23L13.42,33.16a6.93,6.93,0,0,0-1.87,1c-1,.76-.91,1.45.14,2a7.13,7.13,0,0,0,1.38.56c2.8.87,5.58,1.78,8.39,2.6A2.06,2.06,0,0,1,23,40.92c1.2,3.83,2.46,7.65,3.7,11.47a1.28,1.28,0,0,0,1.68,1,3.3,3.3,0,0,0,1.83-1c1.52-1.47,3.05-2.94,4.55-4.44.37-.37.58-.35,1-.05,3.12,2.33,6.27,4.65,9.42,7C47.55,56.57,49,56,49.64,53.13q3-14.31,6.08-28.62A44.65,44.65,0,0,0,56.63,19.67Z"/><path class="cls-2" d="M56.63,19.67a44.65,44.65,0,0,1-.91,4.84q-3,14.31-6.08,28.62c-.6,2.85-2.09,3.44-4.45,1.71-3.15-2.32-6.3-4.64-9.42-7-.41-.3-.62-.32-1,.05-1.5,1.5-3,3-4.55,4.44a3.3,3.3,0,0,1-1.83,1,1.28,1.28,0,0,1-1.68-1c-1.24-3.82-2.5-7.64-3.7-11.47a2.06,2.06,0,0,0-1.56-1.54c-2.81-.82-5.59-1.73-8.39-2.6a7.13,7.13,0,0,1-1.38-.56c-1-.59-1.1-1.28-.14-2a6.93,6.93,0,0,1,1.87-1L53.23,17.78c.22-.09.45-.16.68-.23A2,2,0,0,1,56.63,19.67ZM27.94,50.48a.79.79,0,0,0,.22-.64c.18-1.94.41-3.89.52-5.83a3.12,3.12,0,0,1,1.18-2.25q9-8.07,18-16.17a2.51,2.51,0,0,0,.6-.7c.15-.28.12-.41-.23-.47a1.91,1.91,0,0,0-1.34.37l-5.39,3.39Q33.24,33.35,25,38.53A1.06,1.06,0,0,0,24.48,40c.61,1.73,1.15,3.48,1.73,5.22S27.35,48.68,27.94,50.48Z"/><path class="cls-3" d="M27.94,50.48c-.59-1.8-1.17-3.53-1.73-5.27S25.09,41.72,24.48,40A1.06,1.06,0,0,1,25,38.53q8.23-5.16,16.45-10.35l5.39-3.39a1.91,1.91,0,0,1,1.34-.37c.35.06.38.19.23.47a2.51,2.51,0,0,1-.6.7q-9,8.08-18,16.17A3.12,3.12,0,0,0,28.68,44c-.11,1.94-.34,3.89-.52,5.83A.79.79,0,0,1,27.94,50.48Z"/></g></g></svg>