<svg xmlns="http://www.w3.org/2000/svg" viewBox="0 0 73.23 73.23"><defs><style>.cls-1{fill:#fff;}.cls-2{fill:#88a5c0;}</style></defs><g id="Слой_2" data-name="Слой 2"><g id="Слой_1-2" data-name="Слой 1"><path class="cls-1" d="M36.41,0c1,0,1.93,0,2.9,0a15,15,0,0,1,2,.22c.38.07.76.1,1.15.16s1.08.17,1.61.29l.84.16c.47.11.93.22,1.39.36s.9.23,1.34.37,1,.36,1.57.54a6.68,6.68,0,0,1,.89.31c.37.19.76.33,1.13.51l1.32.61c.29.14.57.32.87.44a6.44,6.44,0,0,1,.7.34c.27.14.55.27.82.44l1.16.74a27.25,27.25,0,0,1,2.68,1.86c.69.53,1.38,1.07,2,1.67.79.75,1.58,1.5,2.34,2.28.52.53,1.05,1.06,1.53,1.63s.93,1.14,1.37,1.73.73,1,1.07,1.53a5.28,5.28,0,0,1,.52.9c.2.45.51.86.76,1.3s.47.78.67,1.19.43.78.62,1.18.34.79.51,1.19.3.64.44,1,.2.56.31.84l.33.89a8.57,8.57,0,0,1,.4,1.21c0,.21.14.42.19.63.21.74.39,1.49.57,2.24s.34,1.81.48,2.72c.1.58.12,1.18.19,1.77a48.31,48.31,0,0,1,.12,5.38,8.82,8.82,0,0,1-.12,1.14s0,0,0,0c.06.45-.12.89-.09,1.34a4.19,4.19,0,0,1-.14.85c-.06.46-.13.92-.22,1.38s-.22,1-.32,1.5c-.07.33-.19.65-.26,1a15.54,15.54,0,0,1-.65,2.21c-.14.34-.19.71-.34,1s-.31.84-.51,1.24a6.37,6.37,0,0,0-.38.94,2.77,2.77,0,0,1-.26.55c-.24.51-.47,1-.73,1.51l-.83,1.52c-.33.59-.7,1.16-1.06,1.74A21.66,21.66,0,0,1,66,58.48c-.44.58-.88,1.16-1.35,1.72s-1,1.16-1.51,1.7S62.36,62.66,62,63s-1,.92-1.5,1.37c-.72.63-1.48,1.22-2.25,1.79-.61.43-1.2.88-1.84,1.26-.44.26-.86.55-1.3.81s-1,.54-1.48.8-.87.46-1.31.68l-.78.32-1.16.49c-.44.2-.9.36-1.36.52s-.69.27-1,.38-.75.21-1.12.34-.64.15-1,.25a14.24,14.24,0,0,1-1.47.33c-.38.1-.76.17-1.15.25-.69.13-1.38.24-2.07.34s-1.63.09-2.43.26a.65.65,0,0,1-.14,0c-1.33,0-2.66,0-4,0-.39,0-.77-.12-1.17-.15s-.57,0-.86,0c-.6-.11-1.22-.13-1.83-.25A13.25,13.25,0,0,1,29,72.45a8.82,8.82,0,0,0-1.2-.31c-.46-.11-.91-.26-1.37-.37-.28-.06-.57-.15-.85-.24s-.86-.28-1.28-.43a17.34,17.34,0,0,1-2.1-.84c-.59-.29-1.22-.5-1.8-.81s-1-.51-1.46-.78-.77-.39-1.14-.62-.93-.59-1.39-.9-.92-.65-1.4-.94a8.59,8.59,0,0,1-.91-.79l-1-.79c-.31-.23-.56-.52-.85-.77-.79-.68-1.52-1.44-2.3-2.14-.57-.53-1-1.15-1.54-1.72-.27-.31-.52-.63-.78-.94s-.44-.58-.66-.88A28.86,28.86,0,0,1,5.3,55.63c-.29-.48-.56-1-.84-1.46s-.58-1.07-.85-1.62S3,51.34,2.77,50.7l-.49-1.23c-.18-.49-.36-1-.53-1.48s-.24-.75-.34-1.12c-.17-.68-.36-1.35-.53-2-.08-.36-.14-.73-.24-1.09S.51,43,.45,42.61.33,42,.3,41.7s-.09-.68-.11-1C.16,40.12,0,39.57,0,39v-.2c0-1.16,0-2.33,0-3.49a12.24,12.24,0,0,1,.07-1.6C.14,33.14.2,32.56.25,32s.23-1.15.26-1.74a7.1,7.1,0,0,1,.16-.88c.1-.54.22-1.09.36-1.62s.28-1,.43-1.55.29-.8.39-1.22.36-1,.54-1.56.43-1,.66-1.57.39-.87.58-1.31c.28-.61.59-1.2.91-1.78a17.09,17.09,0,0,1,1-1.68c.38-.53.7-1.1,1.07-1.64A21.45,21.45,0,0,1,8,13.64c.59-.71,1.22-1.39,1.81-2.11a20.89,20.89,0,0,1,2.07-2c.46-.42.92-.82,1.4-1.22a13.29,13.29,0,0,1,1.44-1.16c.59-.37,1.15-.79,1.74-1.17.75-.49,1.5-1,2.27-1.42.41-.24.87-.39,1.29-.63s1-.45,1.43-.7a11.26,11.26,0,0,1,1.13-.48c.68-.27,1.34-.58,2-.8a9.26,9.26,0,0,1,1.57-.5A7,7,0,0,0,27,1.18c.7-.2,1.41-.35,2.12-.51C29.54.58,30,.5,30.37.44A5.42,5.42,0,0,1,31.5.27a6.4,6.4,0,0,0,.84-.14c.35,0,.7-.11,1-.12ZM39.87,30.8c0-1.75,0-3.5,0-5.25A2.89,2.89,0,0,0,39.55,24a1.74,1.74,0,0,0-.41-.48,1.81,1.81,0,0,0-1-.24H30.17a1.7,1.7,0,0,0-1.18.42,1.3,1.3,0,0,0-.18,1.71c.28.43.62.82.92,1.25a3.61,3.61,0,0,1,.35.6,4.09,4.09,0,0,1,.18.49,4,4,0,0,1,.23,1,.78.78,0,0,0,0,.22,5.43,5.43,0,0,1,.15,1.39c0,.72,0,1.44,0,2.17a46.86,46.86,0,0,1-.16,6.27.68.68,0,0,1-.77.58,1.88,1.88,0,0,1-1-.5,10.78,10.78,0,0,1-1.8-2c-.5-.7-1-1.41-1.43-2.16-.28-.46-.56-.92-.82-1.38s-.41-.81-.62-1.21-.35-.66-.52-1-.3-.61-.43-.93-.26-.56-.37-.86-.39-.84-.55-1.27a3.47,3.47,0,0,0-.17-.45,8.25,8.25,0,0,1-.38-.93l-.33-.95a7.59,7.59,0,0,0-.4-1,2.89,2.89,0,0,0-.64-.91,2.14,2.14,0,0,0-1.58-.49c-1.62,0-3.25,0-4.87,0a3.87,3.87,0,0,0-1.34.21,1.26,1.26,0,0,0-.83,1.14v.7a2.75,2.75,0,0,0,.1.56c.08.3.15.61.2.91a3.48,3.48,0,0,0,.2.67,5.31,5.31,0,0,0,.24.74,1.14,1.14,0,0,1,.15.45,1.78,1.78,0,0,0,.18.55c.07.24.19.47.27.71s.23.52.32.79.16.36.23.55.22.55.35.81.24.56.39.82a6.13,6.13,0,0,1,.35.73c.11.22.26.43.35.65a14,14,0,0,0,.66,1.28c.31.55.61,1.1.94,1.64s.61,1,.93,1.57c.4.68.88,1.33,1.29,2,.25.42.57.8.85,1.2.43.6.83,1.22,1.29,1.79a29.76,29.76,0,0,0,2.21,2.42,23.37,23.37,0,0,0,3.87,3c.47.28.95.54,1.42.81a9.83,9.83,0,0,0,.93.43,7.13,7.13,0,0,0,.85.38,9.86,9.86,0,0,1,1,.33,11.88,11.88,0,0,0,1.29.38,2.09,2.09,0,0,0,1,.16.21.21,0,0,1,.13,0,3.55,3.55,0,0,0,1,.15,6.21,6.21,0,0,1,1.14.12,1.14,1.14,0,0,0,.58,0,1.25,1.25,0,0,1,.43-.07c.39,0,.78-.06,1.17-.07.17,0,.29-.14.45-.15a1.63,1.63,0,0,0,1.07-.56,1.84,1.84,0,0,0,.42-1.29c0-1.73,0-3.46,0-5.19A1.39,1.39,0,0,1,40,43.9c.12-.21.33-.43.56-.41a4.15,4.15,0,0,1,1.31.1,6.09,6.09,0,0,1,1.12.54,12.89,12.89,0,0,1,1.22.87c.6.49,1.19,1,1.75,1.53.78.77,1.55,1.56,2.28,2.39.29.33.61.62.89.95a7.28,7.28,0,0,0,1.92,1.75,3.07,3.07,0,0,0,1.49.39c1.64,0,3.29,0,4.93,0a3.23,3.23,0,0,0,1.39-.28,1.42,1.42,0,0,0,.83-1,1.83,1.83,0,0,0-.07-1c-.1-.33-.25-.62-.37-.93a5,5,0,0,0-.41-.71,12.8,12.8,0,0,0-.77-1.15c-.49-.66-1-1.31-1.56-1.93s-1.22-1.42-1.84-2.12-1.17-1.16-1.73-1.77a12.3,12.3,0,0,1-1.4-1.49c-.27-.41-.6-.78-.42-1.36a2.88,2.88,0,0,1,.55-1c.24-.31.44-.64.68-1s.45-.78.73-1.15a6.26,6.26,0,0,0,.39-.51,10.79,10.79,0,0,1,.75-1.15c.27-.33.41-.74.7-1.07A9.55,9.55,0,0,0,55.8,31c.32-.55.69-1.07,1-1.64.16-.3.3-.6.48-.89s.12-.42.26-.57c.3-.31.34-.74.57-1.09a3.59,3.59,0,0,0,.35-.88,3.19,3.19,0,0,0,.24-1.1,2.81,2.81,0,0,1,0-.29,1,1,0,0,0-.42-.86,1.93,1.93,0,0,0-1.34-.38c-1.9,0-3.79-.13-5.68.07a1.2,1.2,0,0,0-.59.14,3.32,3.32,0,0,0-.87.56,4.05,4.05,0,0,0-.61,1c-.21.54-.47,1.06-.71,1.58s-.54,1.11-.81,1.67-.69,1.24-1,1.87a9.27,9.27,0,0,1-.62,1c-.27.38-.47.82-.74,1.2-.36.54-.72,1.08-1.12,1.59a15.32,15.32,0,0,1-2,2.29,4,4,0,0,1-1.3.83.55.55,0,0,1-.47,0,.83.83,0,0,1-.47-.81C39.87,34.46,39.87,32.63,39.87,30.8Z"/><path class="cls-2" d="M39.67,30.4c0,1.84,0,3.68,0,5.52a1.72,1.72,0,0,0,.33,1,.91.91,0,0,0,1.09.21,7.7,7.7,0,0,0,2-1.72,18.52,18.52,0,0,0,1.42-1.76c.38-.51.71-1.06,1.07-1.59s.86-1.34,1.24-2,.87-1.54,1.25-2.34c.25-.54.53-1.07.78-1.61s.41-.9.6-1.35a2.15,2.15,0,0,1,1.88-1.28h5.92a1.27,1.27,0,0,1,1,.49,1,1,0,0,1,.21.94c-.1.33-.16.66-.26,1a9,9,0,0,1-.34.86c-.21.45-.42.89-.65,1.32s-.54,1-.83,1.49l-.94,1.58c-.28.5-.6,1-.92,1.47-.66,1-1.32,2-2,3-.37.57-.79,1.11-1.16,1.68a2.55,2.55,0,0,0-.54,1.15,1.56,1.56,0,0,0,.37,1.06,12.89,12.89,0,0,0,1.59,1.71c.61.63,1.25,1.21,1.82,1.87.75.86,1.51,1.71,2.23,2.6.49.62,1,1.24,1.42,1.88a8.92,8.92,0,0,1,.94,1.64,2.53,2.53,0,0,1,.26,1.2,1.27,1.27,0,0,1-.91,1.23,3.22,3.22,0,0,1-1.1.13c-1.68,0-3.35,0-5,0a3.11,3.11,0,0,1-2.29-1c-.51-.5-1-1-1.48-1.54-.75-.88-1.55-1.7-2.36-2.52a14.15,14.15,0,0,0-1.69-1.51c-.2-.15-.36-.35-.56-.49a10.21,10.21,0,0,0-1.58-1.07,3.07,3.07,0,0,0-1.72-.43c-.42,0-.82.15-1,.6a2.34,2.34,0,0,0-.18.84c0,1.7,0,3.4,0,5.1a1.93,1.93,0,0,1-.16,1,1.35,1.35,0,0,1-.84.7,6.9,6.9,0,0,1-2.21.3,18.52,18.52,0,0,1-2.11-.07,13.42,13.42,0,0,1-2.19-.41c-.55-.16-1.09-.32-1.62-.52a19.47,19.47,0,0,1-2.09-.92,19.24,19.24,0,0,1-2-1.2,26.4,26.4,0,0,1-3-2.4,27,27,0,0,1-2.28-2.5c-.86-1.05-1.62-2.19-2.38-3.31-.51-.76-1-1.52-1.48-2.3s-1.07-1.83-1.58-2.76c-.42-.75-.82-1.51-1.17-2.28s-.65-1.36-.92-2.06c-.16-.43-.38-.84-.53-1.28s-.35-.93-.5-1.41-.24-.7-.33-1.05-.19-.61-.25-.92-.09-.6-.17-.89a2.08,2.08,0,0,1,.06-1.35.88.88,0,0,1,.51-.51,2.08,2.08,0,0,1,.7-.19c2,0,4,0,6.05,0a1.67,1.67,0,0,1,1.5,1c.32.63.5,1.31.76,2s.43,1.09.65,1.64c.29.73.6,1.44.93,2.16.2.44.43.88.65,1.32s.5,1,.77,1.49c.4.72.82,1.44,1.26,2.14a24.89,24.89,0,0,0,1.49,2.15,8.82,8.82,0,0,0,1.86,1.85,2.51,2.51,0,0,0,.72.28c.22.08.7-.25.8-.5a2.19,2.19,0,0,0,.16-.8c.1-2.75,0-5.51,0-8.27a6.5,6.5,0,0,0-.36-2.22,6.64,6.64,0,0,0-1.18-1.94,1.72,1.72,0,0,1-.53-1.25,1.28,1.28,0,0,1,.67-.93,1.63,1.63,0,0,1,.75-.13h8.18a1.2,1.2,0,0,1,1.1.51,1.68,1.68,0,0,1,.25.91V30.4Z"/></g></g></svg>