<svg xmlns="http://www.w3.org/2000/svg" viewBox="0 0 73.69 73.69"><defs><style>.cls-1{fill:#fff;}.cls-2{fill:#88a5c0;}</style></defs><g id="Слой_2" data-name="Слой 2"><g id="Слой_1-2" data-name="Слой 1"><circle class="cls-1" cx="36.85" cy="36.85" r="36.85"/><path class="cls-2" d="M36.93,19.61c5.68,0,11.35-.05,17,0,3.72.05,6.16,1.82,7,5.47a39.55,39.55,0,0,1,.91,8.42c0,4.21-.08,8.44-.43,12.64-.4,4.77-2.93,7.36-7.7,7.53-8.9.32-17.8.36-26.71.43a71.3,71.3,0,0,1-7.58-.41c-4.6-.45-7.31-2.92-7.48-7.49-.23-6.51-.26-13,.09-19.54.25-4.55,3.17-6.95,7.83-7C25.57,19.52,31.26,19.61,36.93,19.61Zm-4.6,24.9,13.13-7.74L32.33,29.86Z"/><path class="cls-1" d="M32.33,44.51V29.86l13.13,6.91Z"/></g></g></svg>