<svg xmlns="http://www.w3.org/2000/svg" viewBox="0 0 385.87 137.88"><defs><style>.cls-1{fill:#bd1622;}.cls-2{fill:#1d1d1b;}</style></defs><g id="Слой_2" data-name="Слой 2"><g id="Слой_1-2" data-name="Слой 1"><path class="cls-1" d="M129.92,108.39l-8.15-46.31A2.5,2.5,0,0,0,119.3,60H101.43a2.51,2.51,0,0,1-2.5-2.68l2-28.65a2.53,2.53,0,0,0-1.34-2.4L50,.29A2.51,2.51,0,0,0,46.4,2.14L41.21,36.75a2.52,2.52,0,0,1-2.93,2.1L3,32.37A2.51,2.51,0,0,0,0,35l3.37,67.52a2.51,2.51,0,0,0,2.79,2.37l22-2.5a2.5,2.5,0,0,1,2.76,2.86L26.48,135A2.51,2.51,0,0,0,29,137.88h61.9a2.52,2.52,0,0,0,2.5-2.33l1.56-21.89a2.5,2.5,0,0,1,2.5-2.33h30A2.5,2.5,0,0,0,129.92,108.39ZM118.6,72.9l.5,4.92a2.5,2.5,0,0,1-2.64,2.55h0a2.5,2.5,0,0,1-2.36-2.46l-.5-4.92a2.51,2.51,0,0,1,3-2.51h0A2.49,2.49,0,0,1,118.6,72.9Zm.4,17.67.56,4.91a2.51,2.51,0,0,1-2.62,2.58h0a2.52,2.52,0,0,1-2.4-2.43L114,90.72a2.51,2.51,0,0,1,2.93-2.55h0A2.49,2.49,0,0,1,119,90.57ZM108.39,72.65l.09,4.31a2.51,2.51,0,0,1-2.13,2.51h0A2.5,2.5,0,0,1,103.47,77l-.09-4.32a2.49,2.49,0,0,1,2.11-2.5h0A2.5,2.5,0,0,1,108.39,72.65Zm-2.48,15.67h0A2.5,2.5,0,0,1,108.64,91l-.37,4.3A2.49,2.49,0,0,1,106,97.61h0A2.51,2.51,0,0,1,103.27,95l.37-4.3A2.49,2.49,0,0,1,105.91,88.32ZM25.75,46.92l.08,6.81a2.51,2.51,0,0,1-2.13,2.51h0a2.5,2.5,0,0,1-2.88-2.45L20.74,47a2.51,2.51,0,0,1,2.11-2.5h0A2.51,2.51,0,0,1,25.75,46.92Zm-15-2.41h0a2.51,2.51,0,0,1,3,2.25l.54,6.8a2.52,2.52,0,0,1-2,2.64h0a2.5,2.5,0,0,1-3-2.25l-.54-6.8A2.52,2.52,0,0,1,10.72,44.51Zm-.27,28.61-.08-5.56a2.52,2.52,0,0,1,2.12-2.51h0a2.5,2.5,0,0,1,2.89,2.45l.08,5.56a2.5,2.5,0,0,1-2.13,2.51h0A2.5,2.5,0,0,1,10.45,73.12Zm11-1.22-.54-5.55a2.52,2.52,0,0,1,1.95-2.64h0A2.5,2.5,0,0,1,25.88,66l.53,5.54a2.51,2.51,0,0,1-1.95,2.65h0A2.51,2.51,0,0,1,21.42,71.9Zm34.51,4.7-1.6.34a2.51,2.51,0,0,1-3-2.8L52.89,63a2.51,2.51,0,0,1,3.39-2l1.47.57a2.51,2.51,0,0,1,1.58,2.69L57.88,74.5A2.49,2.49,0,0,1,55.93,76.6Zm3.56-30.68-1.6.34a2.51,2.51,0,0,1-3-2.8l1.57-11.13a2.51,2.51,0,0,1,3.39-2l1.47.57a2.51,2.51,0,0,1,1.58,2.69L61.44,43.82A2.49,2.49,0,0,1,59.49,45.92Zm12,33.57H70a2.51,2.51,0,0,1-2.48-2.86L69,66.28a2.49,2.49,0,0,1,2.47-2.15H73A2.5,2.5,0,0,1,75.46,67L74,77.33A2.5,2.5,0,0,1,71.52,79.49Zm3.56-30.68H73.53A2.51,2.51,0,0,1,71.05,46L72.51,35.6A2.49,2.49,0,0,1,75,33.45h1.55A2.5,2.5,0,0,1,79,36.3L77.56,46.65A2.5,2.5,0,0,1,75.08,48.81Z"/><path class="cls-2" d="M146.73,64V42.14a1.53,1.53,0,0,1,1.53-1.53h7.91a1.52,1.52,0,0,1,1.53,1.53v.5a1.53,1.53,0,0,1-1.53,1.53h-4a1.53,1.53,0,0,0-1.53,1.53V49a1.53,1.53,0,0,0,1.53,1.53h.75a5.82,5.82,0,0,1,4.43,1.57,6.43,6.43,0,0,1,1.48,4.59v2.67a6.46,6.46,0,0,1-1.48,4.6,5.81,5.81,0,0,1-4.43,1.56h-4.67A1.53,1.53,0,0,1,146.73,64Zm6.2-2a2,2,0,0,0,1.46-.5,2.46,2.46,0,0,0,.53-1.85V56.45a2.49,2.49,0,0,0-.53-1.85,2.07,2.07,0,0,0-1.46-.5h-.75a1.54,1.54,0,0,0-1.53,1.53v4.81A1.53,1.53,0,0,0,152.18,62Z"/><path class="cls-2" d="M160.37,62a6.94,6.94,0,0,0,1.12-.07,1.34,1.34,0,0,0,.73-.34,1.53,1.53,0,0,0,.41-.78,6.69,6.69,0,0,0,.16-1.37l.59-17.36a1.53,1.53,0,0,1,1.53-1.48H173a1.53,1.53,0,0,1,1.53,1.53V64A1.53,1.53,0,0,1,173,65.53h-.93A1.52,1.52,0,0,1,170.52,64V45.7A1.53,1.53,0,0,0,169,44.17h-.4a1.53,1.53,0,0,0-1.53,1.49l-.39,13.57q-.1,3.42-1.44,4.88A5.52,5.52,0,0,1,161,65.57h-.61Z"/><path class="cls-2" d="M188.38,65.53h-.84a1.52,1.52,0,0,1-1.51-1.3l-.29-1.91A1.54,1.54,0,0,0,184.23,61h-2.17a1.55,1.55,0,0,0-1.52,1.31l-.28,1.91a1.54,1.54,0,0,1-1.52,1.3h-.48a1.53,1.53,0,0,1-1.51-1.77l3.5-21.86a1.54,1.54,0,0,1,1.51-1.29h3.12a1.54,1.54,0,0,1,1.51,1.29l3.5,21.86A1.53,1.53,0,0,1,188.38,65.53ZM183,57.63h.22a1.53,1.53,0,0,0,1.52-1.76l-.11-.73a1.53,1.53,0,0,0-3,0l-.11.73A1.53,1.53,0,0,0,183,57.63Z"/><path class="cls-2" d="M192,64V42.14a1.52,1.52,0,0,1,1.53-1.53h7.26a1.52,1.52,0,0,1,1.53,1.53v.5a1.53,1.53,0,0,1-1.53,1.53h-3.35a1.53,1.53,0,0,0-1.53,1.53V64a1.52,1.52,0,0,1-1.53,1.53h-.85A1.52,1.52,0,0,1,192,64Z"/><path class="cls-2" d="M204.67,46.59a6.52,6.52,0,0,1,1.53-4.65,6.83,6.83,0,0,1,8.83,0,6.52,6.52,0,0,1,1.53,4.65v13A6.52,6.52,0,0,1,215,64.2a6.83,6.83,0,0,1-8.83,0,6.52,6.52,0,0,1-1.53-4.65Zm3.91,13.21a2.71,2.71,0,0,0,.55,1.91,2.27,2.27,0,0,0,3,0,2.66,2.66,0,0,0,.55-1.91V46.34a2.63,2.63,0,0,0-.55-1.9,2.24,2.24,0,0,0-3,0,2.68,2.68,0,0,0-.55,1.9Z"/><path class="cls-2" d="M219.48,40.61h9a1.52,1.52,0,0,1,1.53,1.53v.5a1.53,1.53,0,0,1-1.53,1.53h-1A1.52,1.52,0,0,0,226,45.7V64a1.53,1.53,0,0,1-1.53,1.53h-.86A1.53,1.53,0,0,1,222,64V45.7a1.52,1.52,0,0,0-1.53-1.53h-1A1.53,1.53,0,0,1,218,42.64v-.5A1.52,1.52,0,0,1,219.48,40.61Z"/><path class="cls-2" d="M237.67,40.61c2.05,0,3.52.47,4.44,1.42a6,6,0,0,1,1.37,4.31v.89a7.17,7.17,0,0,1-.61,3.17,3.89,3.89,0,0,1-.51.8,1.48,1.48,0,0,0,.13,2,3.75,3.75,0,0,1,.72,1,7.68,7.68,0,0,1,.66,3.36v2a5.29,5.29,0,0,1-6,5.91h-4.63A1.53,1.53,0,0,1,231.76,64V42.14a1.53,1.53,0,0,1,1.53-1.53Zm-2,5.09v3.53a1.53,1.53,0,0,0,1.53,1.53h0a2.47,2.47,0,0,0,1.73-.57,2.77,2.77,0,0,0,.62-2.07V46.73a3.19,3.19,0,0,0-.48-2,1.83,1.83,0,0,0-1.51-.6h-.36A1.52,1.52,0,0,0,235.68,45.7Zm0,10.15v4.59A1.52,1.52,0,0,0,237.21,62h.71a2,2,0,0,0,1.52-.53,2.8,2.8,0,0,0,.51-1.92V57.34a3.54,3.54,0,0,0-.59-2.38,2.5,2.5,0,0,0-1.94-.64h-.21A1.52,1.52,0,0,0,235.68,55.85Z"/><path class="cls-2" d="M245.9,46.59a6.52,6.52,0,0,1,1.53-4.65,6.83,6.83,0,0,1,8.83,0,6.52,6.52,0,0,1,1.53,4.65v13a6.52,6.52,0,0,1-1.53,4.65,6.83,6.83,0,0,1-8.83,0,6.52,6.52,0,0,1-1.53-4.65Zm3.91,13.21a2.66,2.66,0,0,0,.56,1.91,2,2,0,0,0,1.47.55,2,2,0,0,0,1.48-.55,2.66,2.66,0,0,0,.55-1.91V46.34a2.63,2.63,0,0,0-.55-1.9,2,2,0,0,0-1.48-.56,2,2,0,0,0-1.47.56,2.63,2.63,0,0,0-.56,1.9Z"/><path class="cls-2" d="M266.09,40.61a5.69,5.69,0,0,1,4.4,1.57,6.54,6.54,0,0,1,1.44,4.59V50a6.54,6.54,0,0,1-1.44,4.59,5.69,5.69,0,0,1-4.4,1.57h-.32a1.52,1.52,0,0,0-1.53,1.53V64a1.53,1.53,0,0,1-1.53,1.53h-.86A1.52,1.52,0,0,1,260.32,64V42.14a1.52,1.52,0,0,1,1.53-1.53Zm-1.85,5.09v5.38a1.53,1.53,0,0,0,1.53,1.53h.32a1.93,1.93,0,0,0,1.42-.5,2.63,2.63,0,0,0,.5-1.85V46.52a2.63,2.63,0,0,0-.5-1.85,1.93,1.93,0,0,0-1.42-.5h-.32A1.52,1.52,0,0,0,264.24,45.7Z"/><path class="cls-2" d="M276.61,65.53h-1.34A1.53,1.53,0,0,1,273.74,64V42.14a1.53,1.53,0,0,1,1.53-1.53h.43a1.52,1.52,0,0,1,1.53,1.53V56.38l1.43-5.48,2.87-9.22A1.52,1.52,0,0,1,283,40.61h1.65a1.53,1.53,0,0,1,1.53,1.53V64a1.53,1.53,0,0,1-1.53,1.53h-.47A1.53,1.53,0,0,1,282.64,64V48L281,54.1l-3,10.32A1.52,1.52,0,0,1,276.61,65.53Z"/><path class="cls-2" d="M289.34,40.61h9a1.52,1.52,0,0,1,1.53,1.53v.5a1.53,1.53,0,0,1-1.53,1.53h-1a1.52,1.52,0,0,0-1.53,1.53V64a1.53,1.53,0,0,1-1.53,1.53h-.86A1.53,1.53,0,0,1,291.9,64V45.7a1.52,1.52,0,0,0-1.53-1.53h-1a1.53,1.53,0,0,1-1.53-1.53v-.5A1.52,1.52,0,0,1,289.34,40.61Z"/><path class="cls-2" d="M307.07,51.11h2.31a1.54,1.54,0,0,1,1.54,1.53v.5a1.53,1.53,0,0,1-1.54,1.53h-2.31a1.53,1.53,0,0,0-1.53,1.53v4.24A1.52,1.52,0,0,0,307.07,62h3.7a1.53,1.53,0,0,1,1.53,1.53V64a1.52,1.52,0,0,1-1.53,1.53h-7.62A1.53,1.53,0,0,1,301.62,64V42.14a1.53,1.53,0,0,1,1.53-1.53h7.62a1.52,1.52,0,0,1,1.53,1.53v.5a1.53,1.53,0,0,1-1.53,1.53h-3.7a1.52,1.52,0,0,0-1.53,1.53v3.88A1.52,1.52,0,0,0,307.07,51.11Z"/><path class="cls-2" d="M313.62,62a6.94,6.94,0,0,0,1.12-.07,1.34,1.34,0,0,0,.73-.34,1.53,1.53,0,0,0,.41-.78,6.69,6.69,0,0,0,.16-1.37l.59-17.36a1.53,1.53,0,0,1,1.53-1.48h8.07a1.53,1.53,0,0,1,1.53,1.53V64a1.53,1.53,0,0,1-1.53,1.53h-.93A1.52,1.52,0,0,1,323.77,64V45.7a1.53,1.53,0,0,0-1.53-1.53h-.4a1.53,1.53,0,0,0-1.53,1.49l-.39,13.57q-.1,3.42-1.44,4.88a5.52,5.52,0,0,1-4.25,1.46h-.61Z"/><path class="cls-2" d="M330.75,64V42.14a1.52,1.52,0,0,1,1.53-1.53h.85a1.53,1.53,0,0,1,1.54,1.53v6.3A1.52,1.52,0,0,0,336.2,50h.32a5.73,5.73,0,0,1,4.4,1.57,6.58,6.58,0,0,1,1.44,4.59v3.24a6.59,6.59,0,0,1-1.44,4.6,5.73,5.73,0,0,1-4.4,1.56h-4.24A1.52,1.52,0,0,1,330.75,64Zm5.77-2a1.89,1.89,0,0,0,1.42-.5,2.61,2.61,0,0,0,.5-1.85V55.88a2.64,2.64,0,0,0-.5-1.85,1.93,1.93,0,0,0-1.42-.5h-.32a1.53,1.53,0,0,0-1.53,1.53v5.38A1.52,1.52,0,0,0,336.2,62Z"/><path class="cls-2" d="M347.09,65.53h-.85A1.52,1.52,0,0,1,344.71,64V42.14a1.52,1.52,0,0,1,1.53-1.53h.85a1.52,1.52,0,0,1,1.53,1.53v7.62a1.53,1.53,0,0,0,1.53,1.53h1.39a1.52,1.52,0,0,0,1.53-1.53V42.14a1.53,1.53,0,0,1,1.54-1.53h.92a1.52,1.52,0,0,1,1.53,1.53V64a1.52,1.52,0,0,1-1.53,1.53h-.92A1.53,1.53,0,0,1,353.07,64V56.38a1.53,1.53,0,0,0-1.53-1.53h-1.39a1.54,1.54,0,0,0-1.53,1.53V64A1.52,1.52,0,0,1,347.09,65.53Z"/><path class="cls-2" d="M370.79,65.53H370a1.53,1.53,0,0,1-1.51-1.3l-.29-1.91A1.53,1.53,0,0,0,366.64,61h-2.17A1.53,1.53,0,0,0,363,62.32l-.29,1.91a1.53,1.53,0,0,1-1.52,1.3h-.48a1.53,1.53,0,0,1-1.51-1.77l3.5-21.86a1.54,1.54,0,0,1,1.51-1.29h3.12a1.53,1.53,0,0,1,1.51,1.29l3.5,21.86A1.53,1.53,0,0,1,370.79,65.53Zm-5.36-7.9h.22a1.53,1.53,0,0,0,1.51-1.76l-.11-.73a1.53,1.53,0,0,0-3,0l-.11.73A1.53,1.53,0,0,0,365.43,57.63Z"/><path class="cls-2" d="M373.69,65.53a5.26,5.26,0,0,0,.36-1.4c0-.47.07-1,.07-1.62V58.66a8.93,8.93,0,0,1,.55-3.33,3.56,3.56,0,0,1,.63-1,1.49,1.49,0,0,0,.08-2,5.94,5.94,0,0,1-1.23-4.05v-2A6,6,0,0,1,375.52,42c.92-1,2.4-1.42,4.44-1.42h4.38a1.53,1.53,0,0,1,1.53,1.53V64a1.53,1.53,0,0,1-1.53,1.53h-.86A1.53,1.53,0,0,1,382,64V55.39H380.6a2.42,2.42,0,0,0-2,.71,3.83,3.83,0,0,0-.61,2.45v3.92c0,.5,0,.92,0,1.25s0,.6-.07.82a3.74,3.74,0,0,1-.13.53c-.05.14-.09.3-.14.46Zm6.37-21.36a1.81,1.81,0,0,0-1.51.6,3.19,3.19,0,0,0-.48,2v2.46a2.77,2.77,0,0,0,.62,2.07,2.47,2.47,0,0,0,1.73.57h0A1.53,1.53,0,0,0,382,50.29V45.7a1.52,1.52,0,0,0-1.53-1.53Z"/><path class="cls-2" d="M382.18,122.8h-1.7a3.1,3.1,0,0,1-3.06-2.64l-.58-3.87a3.1,3.1,0,0,0-3.07-2.64h-4.39a3.09,3.09,0,0,0-3.06,2.64l-.58,3.87a3.1,3.1,0,0,1-3.07,2.64h-1a3.1,3.1,0,0,1-3.06-3.59L365.72,75a3.1,3.1,0,0,1,3.06-2.61h6.32A3.1,3.1,0,0,1,378.16,75l7.08,44.25A3.1,3.1,0,0,1,382.18,122.8Zm-10.86-16h.44a3.1,3.1,0,0,0,3.07-3.56l-.22-1.48a3.1,3.1,0,0,0-6.13,0l-.22,1.48A3.09,3.09,0,0,0,371.32,106.8Z"/><path class="cls-2" d="M146.73,121.07v-47a1.73,1.73,0,0,1,1.73-1.73H167.2a1.72,1.72,0,0,1,1.73,1.73v3.75a1.73,1.73,0,0,1-1.73,1.73H156.39a1.73,1.73,0,0,0-1.73,1.73v9.44a1.74,1.74,0,0,0,1.73,1.73h2.89q6,0,9,3.17t3,9.3v5.4q0,6.14-3,9.3t-9,3.17H148.46A1.73,1.73,0,0,1,146.73,121.07Zm12.55-5.48a4.17,4.17,0,0,0,2.95-1q1.08-1,1.08-3.75v-6.42c0-1.82-.36-3.07-1.08-3.74a4.13,4.13,0,0,0-2.95-1h-2.89a1.73,1.73,0,0,0-1.73,1.73v12.46a1.73,1.73,0,0,0,1.73,1.73Z"/><path class="cls-2" d="M175.93,84.46q0-6.13,3.1-9.41T188,71.77q5.85,0,8.94,3.28t3.1,9.41v26.23q0,6.14-3.1,9.41T188,123.38q-5.84,0-8.93-3.28t-3.1-9.41Zm7.93,26.74c0,1.82.37,3.11,1.11,3.85a4.56,4.56,0,0,0,6,0c.74-.74,1.11-2,1.11-3.85V84c0-1.82-.37-3.11-1.11-3.85a4.56,4.56,0,0,0-6,0c-.74.74-1.11,2-1.11,3.85Z"/><path class="cls-2" d="M202.88,115.67a14.23,14.23,0,0,0,2.27-.15,2.68,2.68,0,0,0,1.48-.68,3.16,3.16,0,0,0,.83-1.59,14.08,14.08,0,0,0,.32-2.77L209,74a1.72,1.72,0,0,1,1.72-1.67h19a1.73,1.73,0,0,1,1.73,1.73v47a1.73,1.73,0,0,1-1.73,1.73h-4.62a1.73,1.73,0,0,1-1.73-1.73V81.29a1.72,1.72,0,0,0-1.73-1.73h-3.5a1.72,1.72,0,0,0-1.73,1.68l-.82,28.81q-.21,6.92-2.92,9.87t-8.61,3h-1.23Z"/><path class="cls-2" d="M237.55,121.07v-47a1.73,1.73,0,0,1,1.73-1.73h4.47a1.72,1.72,0,0,1,1.73,1.73V89.57a1.72,1.72,0,0,0,1.73,1.73h2q6,0,8.9,3.18t2.92,9.29v6.56q0,6.14-2.92,9.3t-8.9,3.17h-9.95A1.73,1.73,0,0,1,237.55,121.07Zm11.68-5.48a3.9,3.9,0,0,0,2.88-1c.67-.68,1-1.93,1-3.75v-7.57c0-1.83-.34-3.07-1-3.75a3.9,3.9,0,0,0-2.88-1h-2a1.73,1.73,0,0,0-1.73,1.73v13.62a1.72,1.72,0,0,0,1.73,1.73Z"/><path class="cls-2" d="M272,122.8h-4.46a1.72,1.72,0,0,1-1.73-1.73v-47a1.72,1.72,0,0,1,1.73-1.73H272a1.72,1.72,0,0,1,1.73,1.73V92.24A1.73,1.73,0,0,0,275.46,94H281a1.72,1.72,0,0,0,1.73-1.73V74.08a1.73,1.73,0,0,1,1.74-1.73h4.61a1.73,1.73,0,0,1,1.73,1.73v47a1.73,1.73,0,0,1-1.73,1.73h-4.61a1.73,1.73,0,0,1-1.74-1.73V102.91a1.72,1.72,0,0,0-1.73-1.73h-5.55a1.73,1.73,0,0,0-1.73,1.73v18.16A1.72,1.72,0,0,1,272,122.8Z"/><path class="cls-2" d="M303.42,122.8h-5.11a1.73,1.73,0,0,1-1.73-1.73v-47a1.73,1.73,0,0,1,1.73-1.73h3.61a1.73,1.73,0,0,1,1.73,1.73v30.2l2.88-11.1,6.11-19.62a1.72,1.72,0,0,1,1.65-1.21H320a1.73,1.73,0,0,1,1.73,1.73v47A1.73,1.73,0,0,1,320,122.8h-3.68a1.73,1.73,0,0,1-1.73-1.73V87.27l-3.24,12.4-6.27,21.88A1.74,1.74,0,0,1,303.42,122.8Z"/><path class="cls-2" d="M329.09,72.35h4.47a1.73,1.73,0,0,1,1.73,1.73v39.78a1.72,1.72,0,0,0,1.73,1.73h5.55a1.73,1.73,0,0,0,1.73-1.73V74.08A1.72,1.72,0,0,1,346,72.35h4.61a1.72,1.72,0,0,1,1.73,1.73V114a1.74,1.74,0,0,0,1.73,1.73h0a1.72,1.72,0,0,1,1.73,1.73v10.38a1.73,1.73,0,0,1-1.73,1.73h-4.25a1.73,1.73,0,0,1-1.73-1.73v-3.32a1.74,1.74,0,0,0-1.73-1.73h-17.3a1.72,1.72,0,0,1-1.73-1.73v-47A1.72,1.72,0,0,1,329.09,72.35Z"/></g></g></svg>