<svg width="161" height="161" viewBox="0 0 161 161" fill="none" xmlns="http://www.w3.org/2000/svg">
<g clip-path="url(#clip0_3_194)">
<path d="M160.72 0V160.84H0C0 160.41 0 159.98 0 159.55V1.63C0 1.32 0 1 0 0.72C0 0.44 0.06 0.33 0.1 0.05H159.52C159.92 0.05 160.32 0 160.72 0Z" fill="#546F85"/>
<path d="M117 104.29C117 103.93 117.06 103.62 117.06 103.29V82.9999C117.08 82.8272 117.08 82.6527 117.06 82.4799C117.06 82.2999 116.92 82.0499 116.79 82.0099C116.696 81.9966 116.6 82.003 116.509 82.0288C116.418 82.0547 116.333 82.0993 116.26 82.1599C116.055 82.3497 115.868 82.5572 115.7 82.7799L102.26 98.5299C102.139 98.6795 102.031 98.8403 101.94 99.0099L101.74 98.8999V90.5299C101.74 89.1199 101.74 87.7099 101.74 86.2999C101.74 84.8899 101.81 83.4899 101.74 82.0399C100.97 81.9398 100.19 81.9398 99.42 82.0399C99.42 82.3999 99.35 82.6999 99.35 83.0399V103.45C99.35 103.74 99.41 104.03 99.43 104.28C99.5657 104.353 99.7223 104.376 99.8734 104.347C100.025 104.318 100.161 104.238 100.26 104.12C100.39 103.96 100.53 103.82 100.66 103.66C105.06 98.5399 109.463 93.4166 113.87 88.2899C114.04 88.0899 114.22 87.8899 114.4 87.6999H114.54V93.1899C114.54 95.0599 114.54 96.9199 114.54 98.7899C114.54 100.66 114.47 102.44 114.59 104.27L117 104.29Z" fill="#516D85"/>
<path d="M78.21 82V104.25H80.56V94.63C80.56 94.34 80.56 94.05 80.56 93.75C80.82 93.75 81 93.68 81.17 93.68H91C91.2217 93.7009 91.4421 93.7342 91.66 93.78C91.73 97.32 91.66 100.78 91.72 104.32C92.5137 104.377 93.3111 104.354 94.1 104.25C94.1 103.87 94.1 103.52 94.1 103.17V83.17C94.1 82.97 94.1 82.77 94.1 82.57C94.1 82.2 93.94 82.01 93.55 82.02H92.21C91.82 82.02 91.66 82.21 91.67 82.58C91.67 82.78 91.67 82.98 91.67 83.18V90.29C91.67 90.59 91.67 90.88 91.67 91.15C87.9866 91.37 84.2934 91.37 80.61 91.15V82.91C80.61 82.62 80.61 82.33 80.54 82.03L78.21 82Z" fill="#516D85"/>
<path d="M61.79 82C61.56 82.66 61.52 103.41 61.79 104.26H74.42C74.42 103.67 74.42 103.13 74.42 102.58C74.42 102.03 74.3 102 73.77 101.96H65C64.71 101.96 64.41 101.96 64.14 101.9C63.9492 99.0732 63.9492 96.2368 64.14 93.41H67.5C68.63 93.41 69.77 93.41 70.9 93.41C72.03 93.41 73.15 93.41 74.38 93.41C74.38 92.78 74.38 92.26 74.38 91.74C74.38 91.22 74.27 91.1 73.7 91.08H65C64.71 91.08 64.42 91.08 64.15 91.02C63.9882 88.7984 64.015 86.5671 64.23 84.35H69.34C70.2 84.35 71.05 84.35 71.91 84.35C72.7493 84.4003 73.5908 84.4003 74.43 84.35C74.5973 83.5726 74.5733 82.7661 74.36 82H61.79Z" fill="#516D85"/>
<path d="M135 93.4399C135 92.9199 135 92.4999 135 92.0799C135 91.0799 135 91.0799 134 91.0799H125.53C125.239 91.0715 124.949 91.0481 124.66 91.0099V84.3499H135C135.155 83.6012 135.155 82.8286 135 82.0799C134.07 81.8999 122.82 81.9499 122.24 82.0799V104.24H134.89C134.934 104.164 134.971 104.083 135 104C135 103.55 135 103.1 135 102.64C135 102.18 134.91 102.08 134.42 102.04C134.2 102.04 133.97 102.04 133.74 102.04H125.5C125.21 102.04 124.92 102.04 124.65 101.97C124.507 99.1474 124.537 96.3187 124.74 93.4999L135 93.4399Z" fill="#516D85"/>
<path d="M24.2 111.49C24.59 111.49 24.94 111.56 25.28 111.56H134.61C134.96 111.56 135.1 111.37 135.11 111.04C135.12 110.71 135.01 110.49 134.65 110.48H25.32C24.95 110.48 24.59 110.53 24.2 110.55V111.49Z" fill="#516D85"/>
<path d="M27.4 85.7002L28.17 85.0402C28.7069 84.5525 29.3407 84.1837 30.0301 83.9579C30.7194 83.7322 31.4486 83.6546 32.17 83.7302C32.8373 83.7829 33.4753 84.027 34.0074 84.4332C34.5395 84.8394 34.9432 85.3904 35.17 86.0202C35.4607 86.8029 35.5299 87.6507 35.37 88.4702C35.3003 89.1126 35.0359 89.7183 34.6123 90.2062C34.1887 90.6941 33.6262 91.0409 33 91.2002C32.3115 91.3505 31.613 91.4507 30.91 91.5002C30.6 91.5002 30.28 91.5002 29.91 91.5602C29.91 92.0802 29.91 92.5602 29.91 92.9802C29.91 93.5902 30 93.6502 30.64 93.6802C31.28 93.7102 31.95 93.6802 32.64 93.7402C33.5674 93.7803 34.4573 94.118 35.1777 94.7034C35.8982 95.2887 36.4109 96.0906 36.64 96.9902C36.7433 97.6113 36.7669 98.2431 36.71 98.8702C36.6821 99.492 36.5014 100.097 36.184 100.633C35.8666 101.168 35.4221 101.617 34.89 101.94C34.1324 102.419 33.2746 102.717 32.3831 102.811C31.4917 102.905 30.5906 102.791 29.75 102.48C28.5316 102.02 27.4843 101.196 26.75 100.12L26.07 99.2702L24.24 100.36C25.2427 102.259 26.903 103.727 28.91 104.49C30.5028 104.984 32.1928 105.077 33.83 104.76C35.1149 104.545 36.3016 103.937 37.2273 103.02C38.153 102.104 38.7722 100.923 39 99.6402C39.1316 98.8472 39.1585 98.0403 39.08 97.2402C39.0383 96.3274 38.7578 95.4415 38.2665 94.6712C37.7751 93.9008 37.0901 93.2729 36.28 92.8502C35.88 92.6302 35.47 92.4502 35.02 92.2202L35.67 91.8102C36.552 91.2835 37.2503 90.4979 37.67 89.5602C38.2944 88.2275 38.364 86.7013 37.8632 85.3173C37.3625 83.9333 36.3326 82.8049 35 82.1802C33.7564 81.543 32.3556 81.2778 30.9652 81.4161C29.5748 81.5544 28.2537 82.0905 27.16 82.9602C26.6751 83.352 26.2142 83.7728 25.78 84.2202L27.4 85.7002Z" fill="#516D85"/>
<path d="M64.27 62.0899C64.46 61.1799 64.42 42.2299 64.27 41.6499H63.4L63.31 42.9299L63.05 42.9899C62.32 43.0699 62.32 43.0699 62.31 43.8099C62.31 44.1899 62.31 44.5599 62.31 44.9499L61.59 45.1299L61.46 45.9099C60.9 45.9099 60.83 46.2399 60.84 46.6599C60.84 46.8099 60.84 46.9599 60.84 47.1099C60.84 47.4799 60.9 47.8599 60.45 48.1099C60.33 48.1699 60.28 48.4599 60.27 48.6399C60.27 50.9399 60.27 53.2332 60.27 55.5199C60.2509 55.6564 60.2708 55.7955 60.3274 55.9211C60.384 56.0468 60.4751 56.1538 60.59 56.2299C60.7422 56.3807 60.8285 56.5856 60.83 56.7999C60.83 57.2199 60.83 57.6499 60.83 58.0699L61.47 58.3099L61.59 59.0299L62.26 59.2399L62.38 60.6699L63.3 60.8599L63.42 62.1099L64.27 62.0899Z" fill="#516D85"/>
<path d="M81.13 51.9998V32.9398C81.13 32.5898 80.95 32.4398 80.61 32.4298C80.27 32.4198 80.08 32.5398 80.04 32.9598C80.04 33.1598 80.04 33.3598 80.04 33.5598V70.4698C80.04 70.6698 80.04 70.8698 80.04 71.0798C80.0317 71.1496 80.0395 71.2204 80.0628 71.2868C80.0862 71.3532 80.1245 71.4133 80.1747 71.4625C80.2249 71.5118 80.2858 71.5489 80.3526 71.5709C80.4194 71.593 80.4903 71.5994 80.56 71.5898C80.94 71.5898 81.09 71.4698 81.12 71.0498C81.12 70.7998 81.12 70.5498 81.12 70.2998L81.13 51.9998Z" fill="#516D85"/>
<path d="M73.35 33.7002V69.2002C73.35 69.4002 73.35 69.6002 73.35 69.8002C73.35 70.2702 73.48 70.3802 73.86 70.3902C74.24 70.4002 74.4 70.2802 74.43 69.7802C74.43 69.5602 74.43 69.3302 74.43 69.1002V34.8302C74.43 34.4702 74.43 34.1002 74.36 33.7002H73.35Z" fill="#516D85"/>
<path d="M86.61 70.0802C86.61 69.7302 86.69 69.4102 86.69 69.0802C86.69 57.7069 86.69 46.3369 86.69 34.9702C86.69 34.7702 86.69 34.5602 86.69 34.3602C86.6941 34.2908 86.6824 34.2213 86.6558 34.1571C86.6292 34.0928 86.5884 34.0354 86.5364 33.9892C86.4844 33.943 86.4226 33.9092 86.3557 33.8903C86.2888 33.8714 86.2185 33.868 86.15 33.8802C85.82 33.8802 85.62 34.0002 85.62 34.3602V34.7402C85.62 46.2402 85.62 57.7369 85.62 69.2302C85.62 69.5002 85.62 69.7702 85.68 70.0702L86.61 70.0802Z" fill="#516D85"/>
<path d="M71.22 34.4599V68.4599C71.22 68.6699 71.22 68.8699 71.22 69.0699C71.22 69.5299 71.34 69.6299 71.74 69.6299C72.14 69.6299 72.23 69.5399 72.28 69.0799C72.29 68.93 72.29 68.7797 72.28 68.6299V35.3599C72.28 35.0699 72.28 34.7799 72.2 34.3599L71.22 34.4599Z" fill="#516D85"/>
<path d="M77.34 71V32.52H76.44C76.27 33.84 76.34 70.42 76.51 70.98L77.34 71Z" fill="#516D85"/>
<path d="M69.36 35.8799C69.19 36.8299 69.22 67.6699 69.36 68.2499H70.19C70.39 67.1199 70.35 36.6399 70.19 35.8799H69.36Z" fill="#516D85"/>
<path d="M92.55 67.4598C92.55 66.9798 92.55 66.6298 92.55 66.2898C92.55 56.9565 92.55 47.6231 92.55 38.2898C92.55 38.0698 92.55 37.8398 92.55 37.6198C92.55 37.1598 92.4 37.0498 92.02 37.0498C91.64 37.0498 91.51 37.1698 91.48 37.5998C91.47 37.7496 91.47 37.9 91.48 38.0498V67.3898L92.55 67.4598Z" fill="#516D85"/>
<path d="M67.83 37C67.6 37.7 67.58 66.51 67.83 67.29H68.64C68.83 66.36 68.79 37.64 68.64 37.04L67.83 37Z" fill="#516D85"/>
<path d="M84.58 123.8C84.3575 120.836 83.9027 117.893 83.22 115C83.04 115.3 82.88 115.54 82.76 115.79C81.85 117.62 80.96 119.45 80.05 121.28C79.96 121.46 79.84 121.63 79.68 121.9L79 120.58C78.18 118.93 77.37 117.28 76.55 115.64C76.43 115.42 76.39 115.09 75.92 115.12C75.48 117.98 75.08 120.85 74.73 123.71C75.67 123.93 75.73 123.88 75.85 123.09C76.05 121.52 76.26 119.95 76.47 118.38C76.47 118.32 76.56 118.27 76.64 118.17C76.78 118.42 76.91 118.63 77.02 118.85C77.75 120.31 78.47 121.78 79.21 123.24C79.3682 123.506 79.5453 123.76 79.74 124C80.87 122 81.74 120 82.8 118L83.64 123.8H84.58Z" fill="#516D85"/>
<path d="M66.2 38.1602C66.2 38.5202 66.12 38.8402 66.12 39.1602V64.3202C66.12 64.5202 66.12 64.7302 66.12 64.9302C66.1177 64.9939 66.1295 65.0573 66.1547 65.1158C66.1799 65.1744 66.2178 65.2266 66.2656 65.2687C66.3135 65.3109 66.3701 65.3418 66.4314 65.3593C66.4927 65.3769 66.5571 65.3806 66.62 65.3702C66.93 65.3702 67.17 65.2902 67.18 64.9202C67.18 64.7702 67.18 64.6202 67.18 64.4702C67.18 55.9835 67.18 47.4935 67.18 39.0002C67.18 38.7302 67.18 38.4602 67.1 38.1602H66.2Z" fill="#516D85"/>
<path d="M38.58 123.78H39.69V121.49C40.44 121.41 41.09 121.37 41.69 121.27C42.2553 121.212 42.7797 120.949 43.1646 120.531C43.5495 120.112 43.7684 119.568 43.78 119C43.8423 118.421 43.6979 117.838 43.3721 117.355C43.0464 116.872 42.5604 116.519 42 116.36C41.56 116.256 41.1115 116.193 40.66 116.17C40.3935 116.155 40.1265 116.155 39.86 116.17C39.53 115.73 39.96 115 39.14 115C38.32 115 38.73 115.74 38.41 116.13C38.2 116.13 37.93 116.13 37.66 116.13C37.26 116.149 36.8622 116.199 36.47 116.28C35.8874 116.404 35.3674 116.73 35.0015 117.2C34.6357 117.671 34.4475 118.255 34.47 118.85C34.4788 119.446 34.7054 120.018 35.107 120.458C35.5086 120.898 36.0575 121.177 36.65 121.24C37.26 121.34 37.88 121.38 38.59 121.46L38.58 123.78Z" fill="#516D85"/>
<path d="M64.57 39.73V63.2C64.57 63.41 64.57 63.61 64.57 63.81C64.57 64.25 64.71 64.36 65.11 64.36C65.51 64.36 65.6 64.26 65.64 63.8C65.64 63.52 65.64 63.24 65.64 62.96V40.88C65.64 40.67 65.64 40.47 65.64 40.27C65.63 39.5 65.45 39.39 64.57 39.73Z" fill="#516D85"/>
<path d="M90.43 114.81C89.8162 114.803 89.2072 114.919 88.6388 115.151C88.0704 115.383 87.554 115.726 87.12 116.16C86.6859 116.594 86.3429 117.11 86.1111 117.679C85.8793 118.247 85.7633 118.856 85.77 119.47C85.77 120.706 86.261 121.891 87.1349 122.765C88.0088 123.639 89.1941 124.13 90.43 124.13C91.6659 124.13 92.8512 123.639 93.7251 122.765C94.599 121.891 95.09 120.706 95.09 119.47C95.0953 118.856 94.9784 118.248 94.7461 117.68C94.5138 117.112 94.1708 116.597 93.737 116.163C93.3032 115.729 92.7874 115.386 92.2196 115.154C91.6518 114.921 91.0434 114.805 90.43 114.81Z" fill="#516D85"/>
<path d="M28.64 114.81C28.0273 114.81 27.4206 114.931 26.8551 115.167C26.2895 115.403 25.7762 115.748 25.3448 116.183C24.9134 116.618 24.5725 117.135 24.3417 117.702C24.1108 118.27 23.9947 118.877 24 119.49C24.002 120.415 24.2783 121.318 24.794 122.085C25.3097 122.852 26.0415 123.449 26.8968 123.8C27.752 124.151 28.6922 124.241 29.5983 124.057C30.5043 123.873 31.3354 123.425 31.9863 122.768C32.6372 122.112 33.0786 121.277 33.2546 120.369C33.4306 119.461 33.3332 118.522 32.9749 117.67C32.6165 116.818 32.0133 116.091 31.2416 115.582C30.4699 115.073 29.5645 114.804 28.64 114.81Z" fill="#516D85"/>
<path d="M109.32 114.81C108.706 114.809 108.099 114.929 107.532 115.164C106.965 115.399 106.451 115.744 106.018 116.18C105.586 116.615 105.244 117.132 105.013 117.7C104.781 118.268 104.665 118.877 104.67 119.49C104.672 120.414 104.948 121.317 105.463 122.084C105.979 122.851 106.71 123.448 107.564 123.799C108.419 124.151 109.359 124.241 110.265 124.058C111.17 123.875 112.001 123.427 112.653 122.772C113.304 122.116 113.746 121.282 113.923 120.375C114.101 119.468 114.005 118.529 113.648 117.677C113.291 116.824 112.689 116.097 111.919 115.587C111.149 115.076 110.244 114.806 109.32 114.81Z" fill="#516D85"/>
<path d="M135 123.8C135 123.45 135.08 123.13 135.08 122.8C135.08 120.56 135.08 118.32 135.08 116.08C135.08 115.9 135.08 115.73 135.08 115.55C135.08 115.19 134.92 114.98 134.54 114.99C133.458 114.988 132.377 115.042 131.3 115.15C130.856 115.206 130.443 115.404 130.12 115.714C129.798 116.024 129.584 116.429 129.51 116.87C129.429 117.192 129.419 117.527 129.479 117.853C129.539 118.179 129.668 118.488 129.857 118.76C130.047 119.032 130.292 119.26 130.577 119.429C130.862 119.598 131.18 119.704 131.51 119.74C131.74 119.74 132.03 119.67 132.2 120.04C131.74 120.63 131.26 121.24 130.8 121.86C130.292 122.443 129.84 123.072 129.45 123.74C130.52 123.91 130.52 123.91 131.08 123.2C131.84 122.2 132.59 121.2 133.35 120.27C133.5 120.09 133.62 119.82 134.01 119.98L134.06 123.79L135 123.8Z" fill="#516D85"/>
<path d="M127.94 115.1C127.6 115.1 127.47 115.36 127.3 115.55C125.81 117.29 124.3 119.04 122.84 120.79C122.67 120.99 122.49 121.18 122.31 121.37C122.202 121.118 122.154 120.844 122.17 120.57C122.17 118.93 122.17 117.29 122.17 115.65C122.17 115.1 121.91 114.9 121.43 115.03C120.95 115.16 121.08 115.48 121.08 115.77C121.08 118.22 121.08 120.66 121.08 123.11C121.107 123.405 121.151 123.699 121.21 123.99C121.54 123.67 121.74 123.5 121.91 123.31L126.45 118.03C126.57 117.89 126.71 117.77 126.97 117.51C126.97 118.68 126.97 119.68 126.97 120.68C126.93 121.717 126.95 122.755 127.03 123.79H128C128.165 120.895 128.145 117.992 127.94 115.1Z" fill="#516D85"/>
<path d="M58.13 123.77C58.1086 123.613 58.0718 123.459 58.02 123.31C56.79 120.67 55.56 118.02 54.32 115.38C54.2338 115.237 54.1258 115.109 54 115C52.4392 117.817 51.0565 120.73 49.86 123.72C50.77 123.92 50.86 123.9 51.19 123.1C51.47 122.54 51.74 121.97 51.99 121.39C52.041 121.247 52.1391 121.126 52.268 121.046C52.397 120.966 52.5493 120.932 52.7 120.95C53.55 120.95 54.41 120.95 55.26 120.95C55.4223 120.932 55.586 120.97 55.7241 121.057C55.8622 121.144 55.9666 121.276 56.02 121.43C56.27 122.01 56.55 122.57 56.82 123.14C57.09 123.71 57.16 123.89 58.13 123.77Z" fill="#516D85"/>
<path d="M68.89 118.74V117.43C68.89 116.78 68.89 116.12 68.89 115.43C68.89 115.11 68.71 114.98 68.41 114.97C68.11 114.96 67.86 114.97 67.82 115.39C67.82 115.54 67.82 115.69 67.82 115.84C67.82 118.21 67.82 120.58 67.82 122.95C67.8359 123.232 67.8693 123.512 67.92 123.79C69.1743 123.871 70.4335 123.831 71.68 123.67C72.2589 123.578 72.7814 123.27 73.1416 122.808C73.5019 122.346 73.6729 121.764 73.62 121.18C73.6576 120.617 73.4786 120.061 73.1198 119.626C72.761 119.191 72.2495 118.91 71.69 118.84C71.19 118.84 70.69 118.74 70.19 118.71C69.69 118.68 69.41 118.74 68.89 118.74Z" fill="#516D85"/>
<path d="M58.84 123.75C59.72 123.94 59.77 123.93 60.11 123.16C60.86 121.46 61.6 119.75 62.35 118.05C62.4465 117.851 62.5533 117.658 62.67 117.47C62.82 117.79 62.94 118.01 63.04 118.23C63.74 119.87 64.44 121.52 65.15 123.16C65.48 123.92 65.53 123.94 66.45 123.74C66.4355 123.594 66.4053 123.45 66.36 123.31C65.24 120.67 64.11 118.04 62.98 115.4C62.92 115.26 62.76 115.16 62.65 115.04C61.1935 117.858 59.9208 120.768 58.84 123.75Z" fill="#516D85"/>
<path d="M103.72 123.75C103.735 123.637 103.735 123.523 103.72 123.41C102.567 120.743 101.413 118.076 100.26 115.41C100.26 115.29 100.07 115.21 99.9 115.03C99.5141 115.745 99.1799 116.487 98.9 117.25C98.58 117.96 98.28 118.68 97.96 119.39C97.64 120.1 97.31 120.86 96.96 121.61C96.5924 122.311 96.2976 123.048 96.08 123.81C97.08 123.96 97.08 123.96 97.42 123.18L99.51 118.41C99.63 118.14 99.76 117.88 99.95 117.47C100.13 117.84 100.24 118.05 100.33 118.27L102.45 123.19C102.74 123.92 102.74 123.92 103.72 123.75Z" fill="#516D85"/>
<path d="M97.46 52V57.59C97.46 57.82 97.46 58.05 97.46 58.27C97.4543 58.3403 97.4648 58.4109 97.4907 58.4764C97.5166 58.5419 97.5572 58.6006 97.6094 58.648C97.6615 58.6953 97.7239 58.73 97.7916 58.7495C97.8594 58.7689 97.9306 58.7725 98 58.76C98.33 58.76 98.53 58.63 98.53 58.28C98.53 58.13 98.53 57.98 98.53 57.82V46.18C98.53 46.02 98.53 45.87 98.53 45.72C98.53 45.4 98.33 45.29 98.04 45.28C97.75 45.27 97.49 45.36 97.46 45.72C97.43 46.08 97.46 46.17 97.46 46.4V52Z" fill="#516D85"/>
<path d="M47.43 123.8C47.43 123.44 47.5 123.12 47.5 122.8C47.5 120.89 47.5 118.97 47.5 117.06C47.5 116.77 47.55 116.48 47.57 116.16L49.3 116.01C49.42 115.01 49.38 115.01 48.6 115.01C47.42 115.01 46.24 115.01 45.05 115.01C44.56 115.01 44.45 115.17 44.45 115.59C44.45 116.01 44.7 116.09 45.04 116.1H46.39V122.88C46.39 123.17 46.39 123.46 46.45 123.76L47.43 123.8Z" fill="#516D85"/>
<path d="M120 116.09V115.17C119.942 115.13 119.882 115.093 119.82 115.06C118.51 115.06 117.21 115.06 115.9 115.06C115.77 115.06 115.6 115.28 115.53 115.44C115.494 115.612 115.494 115.789 115.53 115.96C115.53 118.307 115.53 120.64 115.53 122.96C115.542 123.235 115.569 123.508 115.61 123.78H116.61V116.09H120Z" fill="#516D85"/>
<path d="M52.65 83.1501C51.7293 83.0086 50.801 82.9217 49.87 82.8901C47.95 82.8901 46.04 82.8901 44.12 82.8901C43.9 82.8901 43.67 82.8901 43.47 82.8901C43.24 83.5701 43.23 104.39 43.47 105.17H45.73C45.73 104.86 45.73 104.57 45.73 104.28V95.9001C45.73 95.6001 45.73 95.3101 45.73 94.9001H46.73C48.6717 94.9751 50.6163 94.8747 52.54 94.6001C53.7645 94.4364 54.8975 93.863 55.7545 92.9732C56.6115 92.0835 57.1422 90.9299 57.26 89.7001C57.3976 88.9664 57.3868 88.2124 57.2283 87.4829C57.0698 86.7533 56.7668 86.0629 56.3371 85.4524C55.9074 84.8419 55.3597 84.3236 54.7265 83.9282C54.0932 83.5328 53.3872 83.2682 52.65 83.1501ZM52.05 92.3901C51.609 92.4834 51.1606 92.537 50.71 92.5501C49.25 92.5501 47.79 92.5501 46.33 92.5501C46.1853 92.5413 46.0416 92.5213 45.9 92.4901C45.7338 90.0997 45.7338 87.7006 45.9 85.3101C46 85.3101 46.04 85.2401 46.09 85.2401C48 85.2401 49.91 85.2401 51.81 85.3901C52.6495 85.4406 53.4388 85.8068 54.0194 86.4152C54.6 87.0236 54.9289 87.8292 54.94 88.6701C55.0219 89.5415 54.7686 90.4113 54.2316 91.1024C53.6947 91.7935 52.9145 92.254 52.05 92.3901Z" fill="white"/>
<path d="M117 104.29H114.59C114.47 102.46 114.59 100.63 114.54 98.8099C114.49 96.9899 114.54 95.0799 114.54 93.2099V87.7199H114.4C114.22 87.9099 114.04 88.1099 113.87 88.3099C109.47 93.4365 105.067 98.5599 100.66 103.68C100.53 103.84 100.39 103.98 100.26 104.14C100.161 104.258 100.025 104.338 99.8734 104.367C99.7223 104.396 99.5657 104.373 99.43 104.3C99.43 104.05 99.35 103.76 99.35 103.47V82.9999C99.35 82.6999 99.35 82.3999 99.42 81.9999C100.19 81.8998 100.97 81.8998 101.74 81.9999C101.86 83.4499 101.74 84.8599 101.74 86.2599C101.74 87.6599 101.74 89.0799 101.74 90.4899V98.8999L101.94 99.0099C102.031 98.8402 102.139 98.6795 102.26 98.5299L115.64 82.8099C115.808 82.5872 115.995 82.3797 116.2 82.1899C116.273 82.1293 116.358 82.0846 116.449 82.0588C116.54 82.033 116.636 82.0265 116.73 82.0399C116.86 82.0399 116.95 82.3299 117 82.5099C117.02 82.6826 117.02 82.8571 117 83.0299V103.3C117 103.62 117 103.93 117 104.29Z" fill="white"/>
<path d="M78.21 81.9998H80.49C80.49 82.2998 80.56 82.5898 80.56 82.8798V91.0998C84.2434 91.3198 87.9366 91.3198 91.62 91.0998C91.62 90.8298 91.62 90.5398 91.62 90.2398V83.1398C91.62 82.9398 91.62 82.7398 91.62 82.5398C91.62 82.1698 91.77 81.9698 92.16 81.9798H93.52C93.91 81.9798 94.07 82.1598 94.07 82.5298C94.07 82.7298 94.07 82.9298 94.07 83.1298V103.13C94.07 103.48 94.07 103.83 94.07 104.21C93.2811 104.314 92.4837 104.337 91.69 104.28C91.6 100.75 91.69 97.2798 91.63 93.7398C91.4121 93.6941 91.1917 93.6607 90.97 93.6398H81.22C81.05 93.6398 80.87 93.6398 80.61 93.7098C80.61 94.0098 80.61 94.2998 80.61 94.5898V104.24H78.21V81.9998Z" fill="white"/>
<path d="M61.79 82H74.36C74.5604 82.7408 74.5844 83.5183 74.43 84.27C73.5907 84.3203 72.7492 84.3203 71.91 84.27C71.05 84.27 70.2 84.27 69.34 84.27H64.23C64.0116 86.5069 63.9848 88.7585 64.15 91C64.42 91 64.71 91.06 65 91.06H73.78C74.35 91.06 74.44 91.16 74.46 91.72C74.48 92.28 74.46 92.72 74.46 93.39C73.23 93.39 72.11 93.39 70.98 93.39C69.85 93.39 68.71 93.39 67.58 93.39H64.22C64.0292 96.2168 64.0292 99.0532 64.22 101.88C64.49 101.88 64.79 101.88 65.08 101.94H73.86C74.39 101.94 74.49 102.05 74.51 102.56C74.53 103.07 74.51 103.65 74.51 104.24H61.75C61.52 103.44 61.56 82.69 61.79 82Z" fill="white"/>
<path d="M135 93.4399H124.76C124.557 96.2587 124.527 99.0874 124.67 101.91C124.94 101.91 125.23 101.98 125.52 101.98H133.76C133.99 101.98 134.22 101.98 134.44 101.98C134.93 101.98 135 102.09 135.02 102.58C135.04 103.07 135.02 103.49 135.02 103.94C135.004 104.053 134.974 104.164 134.93 104.27H122.26V82.1299C122.84 81.9499 134.09 81.8999 135.02 82.1299C135.175 82.8786 135.175 83.6512 135.02 84.3999H124.66V90.9999C124.949 91.0381 125.239 91.0615 125.53 91.0699H134C135 91.0699 135 91.0699 135 92.0699C135 92.4999 135 92.9199 135 93.4399Z" fill="white"/>
<path d="M24.2 111.49V110.49C24.59 110.49 24.95 110.42 25.32 110.42H134.65C135.01 110.42 135.11 110.66 135.11 110.98C135.11 111.3 134.96 111.5 134.61 111.5H25.28C24.94 111.56 24.59 111.52 24.2 111.49Z" fill="white"/>
<path d="M27.4 85.7001L25.76 84.2201C26.1954 83.7864 26.6562 83.3791 27.14 83.0001C28.2315 82.1201 29.5543 81.5744 30.9488 81.4289C32.3434 81.2834 33.7503 81.5443 35 82.1801C36.3291 82.8085 37.3545 83.9384 37.8514 85.3221C38.3482 86.7057 38.2758 88.2299 37.65 89.5601C37.2303 90.4978 36.532 91.2834 35.65 91.8101L35 92.2201C35.45 92.4501 35.86 92.6301 36.26 92.8501C37.0701 93.2728 37.7551 93.9007 38.2464 94.6711C38.7378 95.4415 39.0183 96.3274 39.06 97.2401C39.1385 98.0402 39.1116 98.8471 38.98 99.6401C38.7444 100.941 38.1061 102.136 37.1551 103.054C36.2041 103.973 34.9885 104.57 33.68 104.76C32.0428 105.076 30.3528 104.984 28.76 104.49C26.753 103.727 25.0927 102.259 24.09 100.36L25.92 99.2701L26.6 100.12C27.3343 101.196 28.3816 102.02 29.6 102.48C30.4406 102.791 31.3417 102.904 32.2331 102.811C33.1246 102.717 33.9824 102.419 34.74 101.94C35.2721 101.617 35.7165 101.168 36.034 100.633C36.3514 100.097 36.5321 99.492 36.56 98.8701C36.616 98.2464 36.5925 97.618 36.49 97.0001C36.2609 96.1006 35.7482 95.2987 35.0277 94.7133C34.3073 94.1279 33.4174 93.7902 32.49 93.7501C31.84 93.7501 31.18 93.7501 30.49 93.6901C29.8 93.6301 29.78 93.6001 29.76 92.9901C29.76 92.5401 29.76 92.0901 29.76 91.5701C30.16 91.5701 30.48 91.5701 30.76 91.5101C31.5136 91.4648 32.2625 91.3612 33 91.2001C33.6465 91.0607 34.2332 90.7225 34.6779 90.2329C35.1226 89.7434 35.4031 89.127 35.48 88.4701C35.6399 87.6506 35.5707 86.8029 35.28 86.0201C35.0532 85.3903 34.6495 84.8393 34.1174 84.4331C33.5853 84.027 32.9473 83.7829 32.28 83.7301C31.5586 83.6545 30.8294 83.7321 30.1401 83.9578C29.4507 84.1836 28.8169 84.5524 28.28 85.0401L27.4 85.7001Z" fill="white"/>
<path d="M64.27 62.0901H63.42L63.3 60.8401L62.38 60.6501L62.26 59.2201L61.59 59.0001L61.47 58.2801L60.83 58.0401C60.83 57.6201 60.83 57.1901 60.83 56.7701C60.8285 56.5559 60.7422 56.3509 60.59 56.2001C60.4751 56.124 60.384 56.017 60.3274 55.8914C60.2708 55.7657 60.2509 55.6266 60.27 55.4901C60.27 53.1968 60.27 50.9035 60.27 48.6101C60.27 48.4301 60.33 48.1401 60.45 48.0801C60.9 47.8501 60.84 47.4701 60.84 47.0801C60.84 46.9301 60.84 46.7801 60.84 46.6301C60.84 46.2101 60.9 45.8601 61.46 45.8801L61.59 45.1001L62.31 44.9201C62.31 44.5301 62.31 44.1601 62.31 43.7801C62.31 43.0401 62.31 43.0401 63.05 42.9601L63.31 42.9001L63.4 41.6201H64.24C64.42 42.2301 64.46 61.1801 64.27 62.0901Z" fill="white"/>
<path d="M81.13 51.9998V70.2998C81.13 70.5498 81.13 70.7998 81.13 71.0498C81.13 71.4698 80.95 71.5898 80.57 71.5898C80.5003 71.5994 80.4294 71.593 80.3626 71.5709C80.2958 71.5489 80.2349 71.5118 80.1847 71.4625C80.1345 71.4133 80.0962 71.3532 80.0729 71.2868C80.0495 71.2204 80.0417 71.1496 80.05 71.0798C80.05 70.8698 80.05 70.6698 80.05 70.4698V33.5598C80.05 33.3598 80.05 33.1598 80.05 32.9598C80.05 32.5398 80.23 32.4198 80.62 32.4298C81.01 32.4398 81.14 32.5898 81.14 32.9398V51.9998H81.13Z" fill="white"/>
<path d="M73.35 33.7002H74.35C74.35 34.1002 74.42 34.4702 74.42 34.8302V69.1002C74.42 69.3302 74.42 69.5602 74.42 69.7802C74.42 70.2802 74.26 70.4002 73.85 70.3902C73.44 70.3802 73.37 70.2702 73.34 69.8002C73.34 69.6002 73.34 69.4002 73.34 69.2002V33.7002H73.35Z" fill="white"/>
<path d="M86.61 70.08H85.67C85.67 69.78 85.61 69.51 85.61 69.24C85.61 57.74 85.61 46.2433 85.61 34.75V34.37C85.61 34.01 85.81 33.89 86.14 33.89C86.2084 33.8777 86.2788 33.8812 86.3457 33.9001C86.4126 33.919 86.4744 33.9528 86.5264 33.999C86.5784 34.0452 86.6192 34.1026 86.6458 34.1668C86.6724 34.2311 86.6841 34.3005 86.68 34.37C86.68 34.57 86.68 34.78 86.68 34.98C86.68 46.3533 86.68 57.7233 86.68 69.09C86.69 69.41 86.64 69.73 86.61 70.08Z" fill="white"/>
<path d="M71.22 34.4602L72.22 34.4102C72.22 34.7802 72.3 35.0702 72.3 35.4102V68.6402C72.31 68.79 72.31 68.9403 72.3 69.0902C72.25 69.5502 72.15 69.6502 71.76 69.6402C71.37 69.6302 71.26 69.5402 71.24 69.0802C71.24 68.8802 71.24 68.6802 71.24 68.4702V34.4702L71.22 34.4602Z" fill="white"/>
<path d="M77.34 71H76.51C76.34 70.44 76.27 33.86 76.44 32.54H77.34V71Z" fill="white"/>
<path d="M69.36 35.8799H70.17C70.37 36.6399 70.41 67.1199 70.17 68.2499H69.34C69.22 67.6699 69.19 36.8299 69.36 35.8799Z" fill="white"/>
<path d="M92.55 67.4601L91.55 67.3901V38.0801C91.54 37.9302 91.54 37.7799 91.55 37.6301C91.55 37.2001 91.7 37.0801 92.09 37.0801C92.48 37.0801 92.58 37.1901 92.62 37.6501C92.62 37.8701 92.62 38.1001 92.62 38.3201C92.62 47.6534 92.62 56.9867 92.62 66.3201C92.6 66.6301 92.57 67.0001 92.55 67.4601Z" fill="white"/>
<path d="M67.83 37H68.59C68.78 37.6 68.82 66.32 68.59 67.25H67.78C67.58 66.46 67.6 37.65 67.83 37Z" fill="white"/>
<path d="M84.58 123.8H83.66L82.82 118C81.73 120 80.89 122 79.76 124C79.5653 123.759 79.3882 123.505 79.23 123.24C78.49 121.78 77.77 120.31 77.04 118.85C76.93 118.63 76.8 118.42 76.66 118.17C76.58 118.27 76.5 118.32 76.49 118.38C76.28 119.95 76.07 121.52 75.87 123.09C75.76 123.88 75.69 123.93 74.75 123.71C75.1 120.85 75.5 117.98 75.94 115.12C76.41 115.12 76.45 115.42 76.57 115.64C77.39 117.28 78.2 118.93 79.02 120.58L79.68 121.91C79.84 121.64 79.96 121.47 80.05 121.29C80.96 119.46 81.85 117.63 82.76 115.8C82.88 115.55 83.04 115.31 83.22 115.01C83.9022 117.9 84.3569 120.839 84.58 123.8Z" fill="white"/>
<path d="M66.2 38.1602H67.13C67.13 38.4602 67.21 38.7302 67.21 39.0002C67.21 47.4935 67.21 55.9835 67.21 64.4702C67.21 64.6202 67.21 64.7702 67.21 64.9202C67.21 65.2902 66.96 65.3702 66.65 65.3702C66.5871 65.3806 66.5227 65.3769 66.4614 65.3593C66.4001 65.3418 66.3435 65.3109 66.2956 65.2687C66.2478 65.2266 66.2099 65.1744 66.1847 65.1158C66.1595 65.0573 66.1477 64.9939 66.15 64.9302C66.15 64.7302 66.15 64.5202 66.15 64.3202V39.1602C66.12 38.8402 66.17 38.5202 66.2 38.1602Z" fill="white"/>
<path d="M38.58 123.78V121.5C37.87 121.42 37.25 121.38 36.64 121.28C36.0475 121.217 35.4986 120.939 35.097 120.498C34.6954 120.058 34.4688 119.486 34.46 118.89C34.4375 118.295 34.6257 117.711 34.9916 117.241C35.3574 116.77 35.8774 116.445 36.46 116.32C36.8522 116.239 37.2501 116.189 37.65 116.17C37.92 116.17 38.19 116.17 38.4 116.17C38.72 115.78 38.34 115.05 39.13 115.04C39.92 115.03 39.52 115.77 39.85 116.21C40.1165 116.195 40.3836 116.195 40.65 116.21C41.1015 116.233 41.55 116.296 41.99 116.4C42.5449 116.557 43.0276 116.902 43.3545 117.377C43.6814 117.852 43.832 118.426 43.78 119C43.7672 119.56 43.5529 120.097 43.1764 120.512C42.7999 120.927 42.2864 121.193 41.73 121.26C41.09 121.36 40.44 121.4 39.73 121.48V123.77L38.58 123.78ZM39.74 120.2C40.2899 120.409 40.8913 120.44 41.46 120.29C41.7864 120.249 42.0872 120.093 42.3075 119.848C42.5278 119.604 42.6529 119.289 42.66 118.96C42.7142 118.616 42.643 118.265 42.4595 117.969C42.2759 117.674 41.9921 117.454 41.66 117.35C41.031 117.14 40.3557 117.108 39.71 117.26L39.74 120.2ZM38.56 117.2C37.8427 117.052 37.0975 117.122 36.42 117.4C36.1748 117.526 35.9681 117.716 35.8218 117.949C35.6755 118.183 35.595 118.452 35.5889 118.727C35.5827 119.003 35.6511 119.275 35.7869 119.515C35.9226 119.755 36.1206 119.953 36.36 120.09C36.9346 120.359 37.5842 120.423 38.2 120.27C38.34 120.27 38.54 120.06 38.54 119.94C38.57 119.09 38.56 118.19 38.56 117.24V117.2Z" fill="white"/>
<path d="M64.57 39.73C65.45 39.39 65.63 39.5 65.66 40.27C65.66 40.47 65.66 40.67 65.66 40.88V63C65.66 63.28 65.66 63.56 65.66 63.84C65.66 64.3 65.51 64.4 65.13 64.4C64.75 64.4 64.62 64.29 64.59 63.85C64.59 63.65 64.59 63.45 64.59 63.24V39.73H64.57Z" fill="white"/>
<path d="M90.43 114.81C91.658 114.81 92.8356 115.298 93.7039 116.166C94.5722 117.034 95.06 118.212 95.06 119.44C95.06 120.668 94.5722 121.846 93.7039 122.714C92.8356 123.582 91.658 124.07 90.43 124.07C89.8165 124.087 89.2057 123.981 88.6342 123.757C88.0626 123.534 87.542 123.197 87.1034 122.768C86.6647 122.339 86.317 121.825 86.0811 121.259C85.8451 120.692 85.7257 120.084 85.73 119.47C85.7232 118.853 85.8404 118.24 86.0747 117.669C86.309 117.098 86.6556 116.58 87.0939 116.145C87.5323 115.711 88.0534 115.369 88.6265 115.139C89.1996 114.91 89.8129 114.798 90.43 114.81ZM90.43 123C90.906 123.017 91.3803 122.935 91.8231 122.76C92.266 122.585 92.6677 122.32 93.0031 121.981C93.3384 121.643 93.6001 121.239 93.7717 120.795C93.9433 120.351 94.021 119.876 94 119.4C94.0027 118.933 93.9127 118.47 93.7352 118.038C93.5577 117.606 93.2963 117.214 92.9662 116.884C92.636 116.554 92.2436 116.292 91.8117 116.115C91.3798 115.937 90.9169 115.847 90.45 115.85C89.9782 115.855 89.512 115.954 89.0783 116.14C88.6447 116.326 88.252 116.596 87.9231 116.934C87.5941 117.272 87.3352 117.672 87.1613 118.111C86.9875 118.549 86.9021 119.018 86.91 119.49C86.9113 119.952 87.0037 120.41 87.1818 120.836C87.3599 121.263 87.6203 121.65 87.9481 121.976C88.2759 122.302 88.6646 122.56 89.0922 122.736C89.5198 122.912 89.9778 123.001 90.44 123H90.43Z" fill="white"/>
<path d="M28.64 114.81C29.5532 114.812 30.4453 115.084 31.2043 115.592C31.9633 116.1 32.5551 116.821 32.9055 117.664C33.2558 118.507 33.3489 119.435 33.1732 120.331C32.9974 121.227 32.5606 122.052 31.9177 122.7C31.2747 123.348 30.4544 123.792 29.5599 123.976C28.6653 124.159 27.7365 124.074 26.8902 123.731C26.044 123.388 25.3181 122.802 24.8038 122.048C24.2895 121.293 24.0099 120.403 24 119.49C23.9907 118.876 24.104 118.267 24.3334 117.697C24.5628 117.128 24.9035 116.61 25.3357 116.174C25.7679 115.738 26.2829 115.393 26.8503 115.159C27.4177 114.925 28.0261 114.806 28.64 114.81ZM28.64 123C29.1118 123.014 29.5814 122.932 30.0204 122.758C30.4595 122.585 30.8589 122.325 31.1945 121.993C31.5301 121.661 31.7949 121.265 31.9728 120.828C32.1508 120.391 32.2383 119.922 32.23 119.45C32.2556 118.969 32.1828 118.487 32.0162 118.035C31.8496 117.583 31.5927 117.169 31.261 116.819C30.9293 116.469 30.5298 116.191 30.0869 116C29.6441 115.81 29.1671 115.712 28.685 115.712C28.2029 115.712 27.7259 115.81 27.2831 116C26.8402 116.191 26.4407 116.469 26.109 116.819C25.7773 117.169 25.5204 117.583 25.3538 118.035C25.1872 118.487 25.1144 118.969 25.14 119.45C25.1347 119.912 25.2206 120.37 25.3928 120.799C25.5649 121.227 25.82 121.618 26.1432 121.947C26.4665 122.277 26.8517 122.54 27.2767 122.721C27.7017 122.901 28.1582 122.996 28.62 123H28.64Z" fill="white"/>
<path d="M109.32 114.81C110.233 114.814 111.124 115.088 111.882 115.597C112.639 116.106 113.23 116.827 113.578 117.671C113.927 118.514 114.019 119.442 113.842 120.337C113.665 121.233 113.227 122.056 112.584 122.703C111.941 123.351 111.12 123.794 110.226 123.976C109.332 124.159 108.404 124.073 107.558 123.73C106.712 123.387 105.987 122.801 105.473 122.047C104.959 121.292 104.68 120.403 104.67 119.49C104.662 118.876 104.777 118.266 105.007 117.697C105.238 117.127 105.579 116.61 106.012 116.174C106.445 115.738 106.961 115.393 107.529 115.159C108.097 114.925 108.706 114.806 109.32 114.81ZM112.86 119.42C112.872 118.953 112.79 118.488 112.619 118.054C112.447 117.619 112.19 117.223 111.863 116.89C111.535 116.557 111.144 116.293 110.712 116.115C110.28 115.936 109.817 115.846 109.35 115.85C108.398 115.85 107.485 116.228 106.811 116.902C106.138 117.575 105.76 118.488 105.76 119.44C105.76 120.392 106.138 121.305 106.811 121.979C107.485 122.652 108.398 123.03 109.35 123.03C109.819 123.029 110.283 122.934 110.715 122.751C111.147 122.568 111.538 122.3 111.865 121.964C112.192 121.628 112.448 121.229 112.619 120.793C112.79 120.356 112.872 119.889 112.86 119.42Z" fill="white"/>
<path d="M135 123.8H134V120C133.61 119.84 133.49 120.11 133.34 120.29C132.58 121.29 131.83 122.29 131.07 123.22C130.51 123.93 130.51 123.93 129.44 123.76C129.83 123.092 130.282 122.463 130.79 121.88C131.25 121.26 131.73 120.65 132.19 120.06C132.02 119.69 131.73 119.8 131.5 119.76C131.17 119.724 130.852 119.618 130.567 119.449C130.282 119.28 130.037 119.052 129.847 118.78C129.658 118.508 129.529 118.198 129.469 117.872C129.409 117.546 129.419 117.211 129.5 116.89C129.574 116.449 129.788 116.043 130.11 115.733C130.433 115.424 130.846 115.226 131.29 115.17C132.367 115.061 133.448 115.008 134.53 115.01C134.91 115.01 135.07 115.21 135.07 115.57C135.07 115.75 135.07 115.92 135.07 116.1C135.07 118.34 135.07 120.58 135.07 122.82C135.11 123.13 135.06 123.45 135 123.8ZM134 116.13C133.17 116.13 132.44 116.13 131.72 116.13C131.428 116.147 131.154 116.275 130.951 116.486C130.749 116.697 130.635 116.977 130.63 117.27C130.571 117.584 130.637 117.908 130.815 118.174C130.993 118.439 131.267 118.625 131.58 118.69C132.381 118.82 133.199 118.82 134 118.69V116.13Z" fill="white"/>
<path d="M127.94 115.1C128.125 117.993 128.125 120.896 127.94 123.79H127C126.92 122.755 126.9 121.717 126.94 120.68C126.94 119.68 126.94 118.68 126.94 117.51C126.68 117.77 126.54 117.89 126.42 118.03L121.88 123.31C121.71 123.5 121.51 123.67 121.18 123.99C121.121 123.699 121.077 123.405 121.05 123.11C121.05 120.66 121.05 118.22 121.05 115.77C121.05 115.48 120.99 115.14 121.4 115.03C121.81 114.92 122.14 115.1 122.14 115.65C122.14 117.29 122.14 118.93 122.14 120.57C122.124 120.844 122.172 121.118 122.28 121.37C122.46 121.18 122.64 120.99 122.81 120.79C124.3 119.04 125.81 117.29 127.27 115.55C127.47 115.36 127.6 115.07 127.94 115.1Z" fill="white"/>
<path d="M58.13 123.77C57.13 123.89 57.13 123.89 56.8 123.17C56.47 122.45 56.25 122.04 56 121.46C55.9466 121.306 55.8422 121.174 55.7041 121.087C55.566 121 55.4023 120.962 55.24 120.98C54.39 120.98 53.53 120.98 52.68 120.98C52.5293 120.962 52.377 120.996 52.248 121.076C52.1191 121.156 52.021 121.277 51.97 121.42C51.72 122 51.45 122.57 51.17 123.13C50.8 123.93 50.75 123.95 49.84 123.75C51.0418 120.749 52.4312 117.827 54 115C54.1306 115.099 54.2452 115.217 54.34 115.35C55.58 117.99 56.81 120.64 58.04 123.28C58.087 123.44 58.1171 123.604 58.13 123.77ZM55.28 119.92L54 117.28C53.4486 118.078 53.0549 118.974 52.84 119.92H55.28Z" fill="white"/>
<path d="M68.89 118.74C69.41 118.74 69.79 118.74 70.16 118.74C70.53 118.74 71.16 118.83 71.66 118.87C72.2195 118.94 72.731 119.222 73.0898 119.657C73.4486 120.092 73.6276 120.647 73.59 121.21C73.6429 121.794 73.4719 122.376 73.1116 122.838C72.7514 123.3 72.2289 123.609 71.65 123.7C70.4035 123.861 69.1443 123.901 67.89 123.82C67.8393 123.542 67.8059 123.262 67.79 122.98C67.79 120.61 67.79 118.24 67.79 115.87C67.79 115.72 67.79 115.57 67.79 115.42C67.79 115.05 68.08 114.99 68.38 115C68.68 115.01 68.86 115.14 68.86 115.46C68.86 116.11 68.86 116.77 68.86 117.46L68.89 118.74ZM68.89 122.74C69.7308 122.874 70.5894 122.847 71.42 122.66C71.7008 122.617 71.9566 122.473 72.1403 122.257C72.324 122.04 72.4233 121.764 72.42 121.48C72.4895 121.169 72.4474 120.843 72.3012 120.56C72.155 120.277 71.9139 120.054 71.62 119.93C70.7393 119.696 69.8191 119.652 68.92 119.8L68.89 122.74Z" fill="white"/>
<path d="M58.84 123.75C59.9192 120.754 61.1919 117.831 62.65 115C62.76 115.12 62.92 115.22 62.98 115.36C64.11 118 65.24 120.63 66.36 123.27C66.4053 123.41 66.4355 123.554 66.45 123.7C65.53 123.9 65.45 123.88 65.15 123.12C64.44 121.48 63.74 119.83 63.04 118.19C62.94 117.97 62.82 117.75 62.67 117.43C62.5533 117.618 62.4465 117.811 62.35 118.01C61.6 119.71 60.86 121.42 60.11 123.12C59.77 123.93 59.72 123.94 58.84 123.75Z" fill="white"/>
<path d="M103.72 123.75C102.72 123.92 102.72 123.92 102.4 123.14L100.28 118.22C100.19 118 100.08 117.79 99.9 117.42C99.71 117.83 99.58 118.09 99.46 118.36L97.37 123.13C97.04 123.91 97.03 123.91 96.03 123.76C96.2475 122.999 96.5424 122.261 96.91 121.56C97.21 120.81 97.54 120.08 97.91 119.34C98.28 118.6 98.53 117.91 98.85 117.2C99.1298 116.437 99.464 115.695 99.85 114.98C100.02 115.16 100.16 115.24 100.21 115.36C101.37 118.027 102.523 120.693 103.67 123.36C103.706 123.487 103.723 123.618 103.72 123.75Z" fill="white"/>
<path d="M97.46 52V46.4C97.46 46.17 97.46 45.94 97.46 45.72C97.46 45.5 97.72 45.26 98.04 45.28C98.36 45.3 98.52 45.4 98.53 45.72C98.53 45.87 98.53 46.02 98.53 46.18V57.82C98.53 57.98 98.53 58.13 98.53 58.28C98.53 58.63 98.33 58.76 98 58.76C97.9307 58.7725 97.8594 58.7689 97.7917 58.7494C97.7239 58.73 97.6616 58.6953 97.6094 58.6479C97.5572 58.6006 97.5166 58.5419 97.4907 58.4763C97.4648 58.4108 97.4543 58.3402 97.46 58.27C97.46 58.05 97.46 57.82 97.46 57.59V52Z" fill="white"/>
<path d="M47.43 123.8H46.43C46.43 123.5 46.37 123.21 46.37 122.92V116.14H45.02C44.68 116.14 44.43 116.03 44.43 115.63C44.43 115.23 44.54 115.06 45.03 115.05C46.22 115.05 47.4 115.05 48.58 115.05C49.36 115.05 49.4 115.11 49.28 116.05L47.55 116.2C47.55 116.52 47.48 116.81 47.48 117.1C47.48 119.01 47.48 120.93 47.48 122.84C47.5 123.12 47.46 123.44 47.43 123.8Z" fill="white"/>
<path d="M120 116.09H116.59V123.78H115.59C115.549 123.508 115.522 123.235 115.51 122.96C115.51 120.62 115.51 118.287 115.51 115.96C115.474 115.789 115.474 115.612 115.51 115.44C115.58 115.28 115.75 115.06 115.88 115.06C117.19 115.06 118.49 115.06 119.8 115.06C119.862 115.093 119.922 115.13 119.98 115.17L120 116.09Z" fill="white"/>
</g>
<defs>
<clipPath id="clip0_3_194">
<rect width="160.72" height="160.84" fill="white"/>
</clipPath>
</defs>
</svg>
