<svg width="311" height="61" viewBox="0 0 311 61" fill="none" xmlns="http://www.w3.org/2000/svg">
<g clip-path="url(#clip0_3_261)">
<path d="M310.62 32.0003C308.834 31.752 307.027 31.6984 305.23 31.8403C303.92 31.8403 303.54 31.3803 303.57 30.0903C303.668 26.5647 303.578 23.0363 303.3 19.5203C302.26 21.4136 301.227 23.3036 300.2 25.1903C299.388 26.5376 298.654 27.9298 298 29.3603C297.17 31.4103 295.81 32.0603 293.66 31.8703C291.51 31.6803 291.36 31.8703 291.36 29.5403C291.36 24.9303 291.36 20.3303 291.36 15.7203C291.36 14.6203 291.09 14.1003 289.9 14.1903C287.77 14.3503 288.7 12.6903 288.53 11.7303C288.36 10.7703 288.73 9.91031 290 10.0003C291.689 10.0853 293.381 10.0853 295.07 10.0003C296.49 9.91031 297.07 10.3403 296.99 11.8403C296.89 15.3303 296.99 18.8403 296.99 22.5303C297.93 21.8903 297.99 20.9503 298.37 20.2503C299.99 17.4103 301.62 14.5803 303.1 11.6803C303.291 11.0922 303.693 10.5954 304.229 10.2854C304.764 9.97535 305.395 9.87383 306 10.0003C306.521 10.0753 307.049 10.0753 307.57 10.0003C308.87 9.84031 309.28 10.3603 309.27 11.6803C309.2 16.4603 309.27 21.2403 309.27 26.0203C309.27 27.0203 309.27 27.8603 310.67 27.4303L310.62 32.0003Z" fill="#E77B2C"/>
<path d="M23.88 10.5102C32.6 6.38018 41.42 6.40018 50.29 10.0002C55.4581 12.1714 60.1858 15.269 64.24 19.1402C64.5071 19.4463 64.7386 19.7818 64.93 20.1402C64.5754 20.67 64.3525 21.2768 64.28 21.9102C62.8 26.5802 61.22 31.2002 58.28 35.2202H58.19C54.5859 29.5362 49.8924 24.6217 44.38 20.7602C42.63 19.5402 40.97 18.1202 38.86 17.5102C37.12 15.8002 34.8 15.1102 32.68 14.1302C29.8 12.8102 26.81 11.7002 23.88 10.5102Z" fill="#07994C"/>
<path d="M13.51 51.3101C10.9 50.0701 9.25001 47.7401 7.37001 45.7201C4.92136 42.9819 2.75071 40.0073 0.890007 36.8401C-0.419993 34.7001 -0.249993 32.9801 1.20001 30.8401C4.18252 26.462 7.63653 22.4245 11.5 18.8001C12.01 18.3301 12.43 17.7301 13.18 17.6001C13.77 19.7001 14.23 21.8601 14.97 23.9101C16.38 27.8101 17.74 31.7401 20.23 35.1301L20.36 35.5401C19.3234 36.7794 18.4744 38.1642 17.84 39.6501C15.94 43.3701 14.83 47.3801 13.51 51.3101Z" fill="#F1B222"/>
<path d="M215.58 22.22C217.66 18.45 219.58 14.89 221.58 11.34C222.24 10.16 226.16 9.33999 227.19 10.19C227.72 10.62 227.53 11.27 227.53 11.83C227.53 16.49 227.53 21.15 227.53 25.83C227.53 27.04 227.74 27.63 229.14 27.61C231.14 27.61 230.21 29.24 230.38 30.21C230.55 31.18 230.22 31.87 228.98 31.82C227.12 31.74 225.25 31.72 223.39 31.82C222.1 31.89 221.81 31.32 221.83 30.17C221.83 26.75 221.83 23.33 221.83 19.71C220.97 20.23 220.83 21.01 220.48 21.63C218.93 24.43 217.32 27.2 215.9 30.07C215.693 30.6728 215.276 31.181 214.725 31.5022C214.174 31.8234 213.527 31.9362 212.9 31.82C212.378 31.77 211.852 31.77 211.33 31.82C210.11 31.91 209.58 31.49 209.6 30.14C209.68 25.48 209.6 20.81 209.66 16.14C209.66 14.92 209.53 14.14 208.02 14.14C205.95 14.14 207.02 12.48 206.8 11.52C206.58 10.56 207.15 9.94999 208.28 9.97999C210.15 10.04 212.01 10.04 213.88 9.97999C215.05 9.97999 215.38 10.45 215.35 11.55C215.29 14.41 215.35 17.26 215.35 20.12C215.231 20.8278 215.311 21.5547 215.58 22.22Z" fill="#E77B2C"/>
<path d="M64.38 48.55C60.4654 52.641 55.6806 55.799 50.38 57.79C43.8075 60.4723 36.5764 61.0999 29.64 59.59C28.8848 59.5434 28.1576 59.2871 27.54 58.85C28.9 57.85 30.59 57.56 32.06 56.8C34.38 55.58 37.06 54.98 38.93 53C39.71 53.14 40.24 52.61 40.82 52.26C47.7475 48.1459 53.6522 42.5148 58.09 35.79C59.57 36.4 59.7 37.97 60.39 39.11C62.19 42.05 63 45.45 64.38 48.55Z" fill="#E77B2C"/>
<path d="M200.35 57.2601H191.27C190.27 57.2601 189.21 57.3201 189.46 55.9001C189.65 54.8401 188.39 52.9001 190.89 53.0001C191.71 53.0001 191.97 52.4301 192.25 51.8501C193.835 48.4026 194.628 44.644 194.57 40.8501C194.57 39.8501 194.15 39.5701 193.21 39.5801C191.21 39.5801 192.05 37.9901 191.89 37.0101C191.73 36.0301 192.01 35.3301 193.24 35.3301C197.84 35.3301 202.44 35.3301 207.04 35.3301C208.37 35.3301 208.36 36.1101 208.36 37.0501C208.36 41.7601 208.36 46.4801 208.36 51.1901C208.36 52.4501 208.55 53.1901 210.05 53.0001C210.99 52.8601 211.2 53.4101 211.24 54.2601C211.4 57.2601 211.43 57.2601 208.43 57.2601H200.35ZM197 52.6701C198.74 52.6701 200.13 52.6701 201.52 52.6701C202.32 52.6701 202.69 52.4301 202.68 51.5801C202.68 48.0301 202.68 44.4801 202.68 40.9301C202.68 39.7701 201.97 39.7701 201.17 39.8101C200.37 39.8501 199.44 39.5501 199.45 40.8901C199.578 44.9554 198.738 48.9928 197 52.6701Z" fill="#E77B2C"/>
<path d="M246.92 20.21C250.75 22.79 251.59 25.75 249.39 28.86C248.784 29.6491 248.016 30.2999 247.138 30.769C246.261 31.238 245.293 31.5145 244.3 31.58C240.94 32.03 237.55 31.71 234.18 31.78C232.96 31.78 233.12 30.97 233.12 30.22C233.12 25.5 233.12 20.79 233.12 16.07C233.12 14.83 232.95 14.07 231.46 14.13C229.64 14.13 230.41 12.69 230.3 11.8C230.19 10.91 230.16 10 231.52 10C235.52 10 239.44 10 243.4 10.1C246.02 10.18 248.5 10.92 249.4 13.74C250.26 16.41 249.33 18.65 246.92 20.21ZM241.09 22.5C240.36 22.85 239.09 21.97 238.91 23.26C238.795 24.5274 238.795 25.8026 238.91 27.07C238.905 27.1579 238.92 27.2458 238.952 27.3276C238.984 27.4095 239.034 27.4833 239.098 27.5441C239.161 27.6049 239.237 27.6513 239.321 27.6799C239.404 27.7085 239.492 27.7188 239.58 27.71C240.788 27.8357 242.009 27.7545 243.19 27.47C243.714 27.3216 244.167 26.9915 244.47 26.5388C244.772 26.0862 244.903 25.5406 244.84 25C244.859 24.4665 244.682 23.9445 244.344 23.532C244.005 23.1195 243.527 22.845 243 22.76C242.35 22.64 241.71 22.58 241.09 22.5ZM240.57 14C239.23 13.64 238.57 14.38 238.82 16.07C238.855 16.5961 238.855 17.1239 238.82 17.65C238.82 18.17 238.96 18.56 239.59 18.57C240.637 18.6794 241.695 18.5912 242.71 18.31C243.102 18.1894 243.448 17.9511 243.7 17.6273C243.953 17.3035 244.099 16.9099 244.12 16.5C244.171 16.124 244.122 15.7412 243.978 15.39C243.834 15.0389 243.6 14.732 243.3 14.5C242.61 14 241.77 14.11 240.57 14Z" fill="#E77B2C"/>
<path d="M20.23 35.1303C17.74 31.7403 16.38 27.8103 14.97 23.9103C14.23 21.8603 13.77 19.7003 13.18 17.6003C16.2224 14.5278 19.8647 12.1144 23.88 10.5103C26.81 11.7003 29.8 12.8103 32.68 14.1303C34.8 15.1303 37.12 15.8003 38.86 17.5103C38.6686 17.7235 38.4539 17.9147 38.22 18.0803C31.0088 22.3269 24.8572 28.1571 20.23 35.1303Z" fill="#E77B2C"/>
<path d="M204.15 19.0001C204.15 21.3301 204.15 23.6601 204.15 26.0001C204.15 27.0901 204.4 27.5901 205.6 27.5701C207.91 27.5701 206.72 29.3901 206.97 30.4201C207.22 31.4501 206.6 31.8201 205.57 31.8001C202.95 31.7535 200.33 31.7535 197.71 31.8001C196.57 31.8001 196.04 31.3801 196.15 30.2901C196.26 29.2001 195.42 27.7401 197.33 27.5601C198.27 27.4701 198.47 27.0501 198.47 26.2201C198.47 22.7801 198.47 19.3401 198.47 15.9001C198.47 14.6801 197.81 14.5701 196.9 14.6501C195.99 14.7301 194.82 14.2801 194.8 15.9301C194.824 18.7892 194.586 21.6444 194.09 24.4601C193.79 26.2432 193.163 27.9554 192.24 29.5101C190.83 31.7201 188.66 32.3401 186.24 32.5101C186.079 32.5347 185.915 32.5227 185.76 32.4749C185.604 32.4272 185.462 32.345 185.342 32.2344C185.223 32.1239 185.131 31.9878 185.071 31.8364C185.012 31.6851 184.988 31.5222 185 31.3601C184.95 30.7201 184.86 30.0901 184.75 29.4601C184.58 28.4601 184.68 27.8001 185.92 27.6301C186.62 27.5178 187.268 27.1878 187.77 26.6871C188.273 26.1864 188.605 25.5402 188.72 24.8401C189.442 21.7164 189.778 18.5158 189.72 15.3101C189.72 14.3101 189.13 14.1701 188.36 14.2101C186.15 14.3201 187.06 12.6401 186.89 11.6201C186.69 10.4201 187.25 9.97014 188.47 9.98014C193.19 10.0201 197.91 10.0201 202.63 9.98014C203.76 9.98014 204.19 10.3401 204.17 11.4901C204.1 14.0001 204.17 16.4901 204.17 19.0101L204.15 19.0001Z" fill="#E77B2C"/>
<path d="M97.49 45.6199C100.75 47.6199 101.59 49.0899 101.11 52.0199C100.7 54.4599 98.67 56.2899 95.57 56.8599C91.99 57.5199 88.36 57.0799 84.75 57.1699C83.65 57.1699 83.83 56.3399 83.83 55.6699C83.83 50.9499 83.83 46.2199 83.83 41.4999C83.83 40.1599 83.62 39.4999 82.03 39.4999C80.44 39.4999 81 38.2299 80.91 37.3699C80.82 36.5099 80.61 35.3699 82.13 35.4199C86.39 35.4799 90.65 35.2199 94.89 35.5599C97.38 35.7599 99.49 36.6999 100.17 39.3599C100.85 42.0199 100 44.0699 97.49 45.6199ZM89.49 50.5399C89.49 53.2099 89.49 53.2099 91.49 53.2199C94.31 53.2199 95.49 52.4399 95.49 50.5399C95.49 48.6399 94.49 47.9999 91.61 47.9999C89.45 47.9999 89.45 47.9999 89.45 50.5399H89.49ZM91.28 39.3999C89.71 38.9599 89.28 39.8999 89.45 41.4899C89.56 42.6799 88.98 44.1099 91.19 43.9599C93.7 43.7899 94.84 43.2699 94.91 41.7499C94.98 40.2299 93.78 39.4099 91.28 39.3999Z" fill="#E77B2C"/>
<path d="M160.3 44.18C160.3 46.56 160.3 48.95 160.3 51.34C160.3 52.46 160.49 53.08 161.82 53.02C163.87 52.93 162.99 54.58 163.15 55.56C163.31 56.54 163.05 57.23 161.78 57.2C159.1 57.13 156.42 57.15 153.78 57.2C152.64 57.2 152.09 56.76 152.27 55.66C152.45 54.56 151.48 53.07 153.5 53.02C154.5 53.02 154.66 52.6 154.66 51.74C154.66 48.25 154.6 44.74 154.66 41.26C154.66 40.05 154.05 39.87 153.14 40.01C152.23 40.15 151.05 39.39 150.97 41.15C150.86 43.65 150.63 46.15 150.41 48.63C150.229 50.4334 149.749 52.1941 148.99 53.84C147.75 56.6 145.49 57.74 142.58 57.84C141.58 57.84 141.04 57.52 141.03 56.46C141.03 55.8768 140.98 55.2946 140.88 54.72C140.68 53.72 140.88 53.23 142 53.04C144.06 52.68 144.75 51.04 145.1 49.25C145.617 46.4998 145.885 43.7084 145.9 40.91C145.9 39.83 145.51 39.48 144.47 39.52C142.1 39.6 143.32 37.76 143.08 36.74C142.79 35.5 143.59 35.34 144.62 35.35C149.34 35.35 154.06 35.4 158.78 35.35C160.02 35.35 160.4 35.77 160.37 36.97C160.3 39.36 160.37 41.75 160.37 44.14L160.3 44.18Z" fill="#E77B2C"/>
<path d="M115.3 31.5402C113.67 31.5402 112.04 31.5402 110.41 31.5402C109.41 31.5402 109.11 31.1802 109.08 30.2102C108.97 27.4602 108.92 27.4102 111.66 27.3102C113.9 27.2202 112.87 25.5802 112.93 24.6102C113.02 23.2002 111.93 23.8902 111.32 24.0202C109.405 24.5685 107.366 24.502 105.49 23.8302C104.6 23.5257 103.823 22.9603 103.259 22.2075C102.696 21.4548 102.372 20.5497 102.33 19.6102C102.237 18.2156 102.213 16.8172 102.26 15.4202C102.26 14.4202 101.97 13.8802 100.87 13.9902C98.82 14.1902 99.49 12.6502 99.4 11.6202C99.31 10.5902 99.4 9.62022 100.91 9.73022C102.77 9.81022 104.64 9.80022 106.5 9.73022C107.71 9.68022 107.98 10.2202 107.95 11.3002C107.89 13.3902 107.95 15.4902 107.95 17.5902C107.95 19.2202 108.75 19.8402 110.58 19.8302C112.66 19.8302 112.97 19.5202 112.98 17.6102C112.98 16.7902 112.98 15.9802 112.98 15.1602C112.98 14.3402 112.85 14.0002 112 14.0002C109.78 13.8302 111 12.0802 110.79 11.0002C110.58 9.92022 111.47 9.75022 112.35 9.75022C114.97 9.75022 117.59 9.81022 120.21 9.75022C121.48 9.75022 121.78 10.3602 121.59 11.3602C121.4 12.3602 122.37 14.0002 120.3 14.0002C118.9 14.0002 118.67 14.5902 118.69 15.7902C118.75 19.1102 118.69 22.4402 118.69 25.7902C118.69 26.9302 118.98 27.5102 120.25 27.4802C122.49 27.4802 121.33 29.1902 121.53 30.1702C121.77 31.3102 121.13 31.6902 120.01 31.6402C118.45 31.4902 116.88 31.5402 115.3 31.5402Z" fill="#E77B2C"/>
<path d="M184 44.1701C184 46.5601 184.05 48.9501 184 51.3401C184 52.4901 184.24 53.1401 185.53 53.0201C187.45 52.8501 186.88 54.3001 186.96 55.3001C187.04 56.3001 186.96 57.3001 185.46 57.2001C183.54 57.1101 181.61 57.1501 179.69 57.2001C178.69 57.2001 178.33 56.8401 178.36 55.8701C178.36 54.3501 178.36 52.8701 178.36 51.3201C178.36 50.5301 178.74 49.3801 177.36 49.3201C175.98 49.2601 174.61 49.0001 174 50.5801C173.62 51.6701 173.44 52.8301 173.14 53.9501C172.827 55.2423 172.03 56.3651 170.914 57.087C169.798 57.809 168.447 58.075 167.14 57.8301C165.36 57.4801 165.72 55.6501 165.24 54.4501C164.83 53.4501 165.84 53.4001 166.49 53.2701C167.42 53.0801 167.8 52.4001 168.12 51.6201C168.69 50.2301 169.02 48.7201 170.35 47.7401C171.08 47.2101 170.35 47.0101 170.01 46.7401C167.18 44.7401 166.38 43.0101 167.01 40.1701C167.61 37.6101 169.62 35.8701 172.7 35.5201C176.07 35.1401 179.46 35.4301 182.84 35.3701C183.84 35.3701 183.89 36.0401 183.89 36.7901C184 39.2701 184 41.7201 184 44.1701ZM178.36 42.1701C178.17 41.1701 179.07 39.6001 176.72 39.7501C173.89 39.9301 172.59 40.5401 172.57 42.1601C172.55 43.7801 173.87 44.6101 176.52 44.8201C178.81 45.0001 178.31 43.5601 178.34 42.1901L178.36 42.1701Z" fill="#E77B2C"/>
<path d="M38.93 53.0003C37.03 55.0003 34.38 55.5703 32.06 56.7903C30.59 57.5503 28.9 57.8403 27.54 58.8403C22.2837 57.6222 17.4496 55.0187 13.54 51.3003C14.86 47.3703 15.97 43.3603 17.87 39.6403C18.5044 38.1544 19.3534 36.7696 20.39 35.5303C25.0646 42.7686 31.4269 48.7637 38.93 53.0003Z" fill="#07994C"/>
<path d="M140.8 31.7903C139.62 31.5003 138.04 32.3903 137 30.6803C136.6 30.0303 136 30.8903 135.57 31.1703C132.8 32.9703 129.13 32.9203 126.94 31.0103C126.049 30.1936 125.381 29.1626 125.001 28.0153C124.62 26.868 124.539 25.6425 124.766 24.4551C124.992 23.2678 125.519 22.158 126.295 21.2313C127.071 20.3046 128.071 19.5917 129.2 19.1603C130.747 18.63 132.365 18.34 134 18.3003C134.85 18.3003 136 18.6403 136.15 17.1803C136.37 15.4303 135.76 14.2803 134.29 13.9003C132.789 13.6389 131.244 13.8017 129.83 14.3703C127.48 15.0903 126.32 14.2403 126.24 11.6803C126.24 10.9303 126.65 10.6803 127.24 10.4503C130.153 9.37695 133.284 9.0336 136.36 9.45027C137.654 9.58277 138.862 10.1627 139.775 11.09C140.687 12.0173 141.248 13.234 141.36 14.5303C141.81 17.6003 141.48 20.7003 141.58 23.7803C141.58 24.5403 141.58 25.2903 141.66 26.0503C141.74 26.8103 142.01 27.5703 143.13 27.5703C145.48 27.5703 144.19 29.4103 144.44 30.4303C144.74 31.6303 143.94 31.9103 142.9 31.8203C142.23 31.7503 141.59 31.7903 140.8 31.7903ZM136.22 24.3903C135.87 23.7003 136.95 22.2703 135.51 22.0103C134.715 21.8196 133.886 21.8324 133.097 22.0474C132.309 22.2624 131.588 22.6727 131 23.2403C130.475 23.7177 130.143 24.3705 130.065 25.0758C129.988 25.7811 130.171 26.4904 130.58 27.0703C130.911 27.6307 131.433 28.0534 132.05 28.2608C132.667 28.4683 133.338 28.4468 133.94 28.2003C135.75 27.6503 136.22 26.8903 136.22 24.3903Z" fill="#E77B2C"/>
<path d="M64.38 48.5503C62.95 45.4503 62.19 42.0503 60.38 39.1103C59.69 37.9703 59.56 36.4003 58.08 35.7903C58.15 35.6003 58.22 35.4103 58.28 35.2203V35.1503C61.19 31.1503 62.77 26.5103 64.28 21.8403C64.3525 21.2069 64.5754 20.6001 64.93 20.0703C67.52 21.6503 69.17 24.1603 71.07 26.4003C72.71 28.4003 74.14 30.4803 75.65 32.5503C75.9011 32.7943 76.0609 33.117 76.1028 33.4646C76.1446 33.8122 76.066 34.1637 75.88 34.4603C72.9042 39.5261 69.2429 44.1565 65 48.2203C64.8132 48.3642 64.6037 48.4757 64.38 48.5503Z" fill="#F1B222"/>
<path d="M260.72 31.7699C258.91 31.7699 257.1 31.7099 255.3 31.7699C254.03 31.8299 253.5 31.4199 253.57 30.0899C253.64 28.7599 253.3 27.1399 255.57 27.4899C256.25 27.5999 256.41 27.0599 256.41 26.4899C256.41 22.7599 256.41 19.0399 256.41 15.3099C256.41 14.1899 255.73 14.1299 254.91 14.1599C252.91 14.2499 253.7 12.7599 253.58 11.8199C253.46 10.8799 253.58 9.93989 254.96 9.98989C256.82 9.98989 258.69 9.98989 260.55 9.98989C261.81 9.93989 262.16 10.4999 262.1 11.6699C262.03 13.2399 262.1 14.8099 262.1 16.3799C262.1 17.2799 262.4 17.6399 263.31 17.6099C264.534 17.5749 265.759 17.6049 266.98 17.6999C271.29 18.0699 273.51 20.3899 273.57 24.5199C273.63 28.6499 271.39 31.1599 267.17 31.5699C265.04 31.7699 262.87 31.5699 260.72 31.5699V31.7699ZM262.05 24.6499C262.17 25.8699 261.37 27.5099 263.86 27.3699C266.86 27.1899 267.86 26.6799 267.92 24.7699C267.98 22.8599 266.92 21.9999 264.06 21.9799C262.07 21.9999 262.07 21.9999 262.05 24.6499Z" fill="#E77B2C"/>
<path d="M174.49 10C176.94 10 179.39 10 181.83 10C183.06 10 183.66 10.31 183.59 11.67C183.49 13.4719 183.49 15.2781 183.59 17.08C183.67 18.66 182.69 18.58 181.66 18.52C180.63 18.46 179.48 18.94 179.47 17.15C179.47 16.15 180.26 14.44 178.22 14.59C176.42 14.72 177.36 16.34 177.32 17.23C177.18 20.13 177.32 23.05 177.25 25.96C177.25 27.12 177.51 27.79 178.79 27.58C181.02 27.2 180.63 28.76 180.79 30.08C180.94 31.7 180.1 31.87 178.79 31.84C175.79 31.77 172.84 31.71 169.88 31.84C168.33 31.9 168.1 31.17 168.23 29.96C168.34 28.96 167.67 27.38 169.72 27.61C171.28 27.79 171.72 27.14 171.66 25.61C171.54 22.47 171.66 19.32 171.66 16.18C171.66 15.33 171.66 14.51 170.46 14.52C169.26 14.53 169.46 15.41 169.46 16.12C169.39 18.61 169.39 18.55 167.04 18.57C165.79 18.57 165.41 18.1 165.45 16.92C165.52 15.17 165.55 13.42 165.45 11.67C165.38 10.31 165.98 9.98 167.21 10.01C169.6 10 172 10 174.49 10Z" fill="#E77B2C"/>
<path d="M116.65 45.86C119.38 47.09 120.65 49.13 120.06 52.06C119.792 53.4795 119.081 54.7776 118.03 55.7691C116.98 56.7605 115.643 57.3943 114.21 57.58C111.057 58.3003 107.755 57.9666 104.81 56.63C103.05 55.8 103.51 54.75 104.18 53.38C104.85 52.01 105.59 51.73 106.85 52.57C107.588 53.0297 108.41 53.338 109.269 53.4771C110.127 53.6161 111.005 53.5832 111.85 53.38C112.559 53.3141 113.213 52.9697 113.669 52.4223C114.124 51.8749 114.344 51.1693 114.28 50.46C114.212 49.812 113.896 49.2153 113.399 48.7943C112.901 48.3732 112.26 48.1604 111.61 48.2C111.26 48.1752 110.91 48.1752 110.56 48.2C109.02 48.31 108.74 47.45 108.75 46.13C108.76 44.81 108.84 43.9 110.47 44.02C111.154 44.0864 111.844 43.9726 112.47 43.69C112.96 43.4831 113.365 43.1163 113.619 42.6496C113.873 42.1828 113.962 41.6436 113.87 41.12C113.848 40.6225 113.646 40.1498 113.303 39.7894C112.959 39.4291 112.496 39.2055 112 39.16C111.37 39.09 110.73 39.16 110.09 39.16C109.09 39.16 108.45 39.45 108.41 40.64C108.34 42.76 106.67 41.76 105.64 41.94C104.43 42.16 104.34 41.32 104.36 40.43C104.36 39.96 104.36 39.5 104.36 39.03C104.36 35.63 104.57 35.37 108 34.89C110.191 34.5197 112.433 34.5808 114.6 35.07C116.92 35.66 118.67 36.92 119.3 39.27C119.643 40.3659 119.621 41.5435 119.236 42.6255C118.852 43.7076 118.127 44.6356 117.17 45.27C116.976 45.4475 116.802 45.6453 116.65 45.86Z" fill="#E77B2C"/>
<path d="M131.54 35.4002C133.93 35.4002 136.31 35.4002 138.7 35.4002C139.7 35.4002 140.08 35.7302 140.06 36.7202C140.01 38.5202 140 40.3302 140.06 42.1302C140.06 43.2302 139.59 43.5102 138.58 43.5302C136.1 43.5302 136.07 43.6102 135.88 41.1202C135.82 40.2502 135.5 39.8302 134.61 39.9002C134.37 39.9002 134.14 39.9002 133.91 39.9002C131.43 39.9002 131.42 39.9002 131.42 42.3002C131.42 45.3002 131.47 48.3602 131.42 51.3902C131.42 52.5502 131.68 53.1802 132.96 53.0002C135.16 52.6802 134.57 54.2902 134.71 55.4702C134.88 56.9302 134.2 57.2502 132.89 57.2202C130.04 57.1502 127.19 57.1602 124.33 57.2202C123.13 57.2202 122.72 56.6902 122.89 55.6402C123.06 54.5902 122.14 53.0002 124.16 53.0402C125.58 53.0402 125.76 52.4202 125.74 51.2402C125.68 47.9202 125.74 44.6002 125.74 41.2402C125.74 40.1702 125.62 39.4502 124.26 39.5302C122.26 39.6502 123.02 38.0302 122.88 37.0402C122.74 36.0502 123.13 35.3102 124.41 35.3502C126.76 35.4502 129.15 35.4002 131.54 35.4002Z" fill="#E77B2C"/>
<path d="M96.76 14.1102V15.0002C96.76 17.7702 95.76 18.4802 93.08 17.7802C92.08 17.5102 92.42 16.7802 92.29 16.1102C92.12 15.3302 92.78 14.1702 91.61 13.8702C91.0665 13.741 90.4976 13.7661 89.9676 13.9428C89.4375 14.1195 88.9673 14.4407 88.61 14.8702C88.222 15.3024 87.9199 15.8047 87.72 16.3502C86.8204 18.9588 86.6577 21.7651 87.25 24.4602C87.86 27.6102 90.13 28.7102 93.35 27.8002C94.09 27.5902 94.94 26.8002 95.6 27.5302C96.2718 28.4169 96.6838 29.4728 96.79 30.5802C96.89 31.2102 96.33 31.4902 95.79 31.6602C89.33 33.8302 81.6 32.5402 80.95 22.8902C80.7 19.0902 81.13 15.4102 83.84 12.4002C85.3681 10.907 87.3023 9.89724 89.401 9.49707C91.4996 9.0969 93.6697 9.32406 95.64 10.1502C95.999 10.2693 96.3062 10.5082 96.5101 10.8267C96.7139 11.1453 96.8022 11.5243 96.76 11.9002C96.71 12.5902 96.76 13.3502 96.76 14.1102Z" fill="#E77B2C"/>
<path d="M162.31 14.0901C162.31 14.4901 162.31 14.9001 162.31 15.3101C162.31 17.8401 162.31 17.7701 159.7 17.8201C158.29 17.8201 157.7 17.4301 157.76 15.9501C157.76 15.2301 158.25 14.1601 157.15 13.8401C156.666 13.7173 156.16 13.717 155.676 13.8392C155.193 13.9614 154.747 14.2023 154.38 14.5401C154.021 14.8391 153.734 15.215 153.54 15.6401C152.227 18.784 152.095 22.2969 153.17 25.5301C153.86 27.7701 156.1 28.4601 158.88 27.7401C159.59 27.5601 160.43 26.8401 161 27.3601C161.731 28.2051 162.191 29.2504 162.32 30.3601C162.49 31.0901 161.91 31.3601 161.32 31.6201C153.97 35.0701 146.69 30.6201 146.46 22.5201C146.37 19.2001 146.67 16.0201 148.66 13.1901C151.16 9.62013 157.46 8.10013 161.27 10.1901C161.596 10.3161 161.87 10.5463 162.051 10.8448C162.232 11.1433 162.309 11.4933 162.27 11.8401C162.27 12.5701 162.31 13.3301 162.31 14.0901Z" fill="#E77B2C"/>
<path d="M277 22.88C277 20.5 276.95 18.11 277 15.73C277 14.5 276.59 13.95 275.39 14.16C273.39 14.5 273.52 13.21 273.46 11.85C273.4 10.49 273.96 9.91997 275.38 9.95997C278.17 10.04 280.96 9.95997 283.75 9.95997C284.83 9.95997 285.69 10.11 285.43 11.45C285.22 12.45 286.34 14.31 283.96 14.13C282.85 14.05 282.59 14.57 282.6 15.59C282.64 19.1366 282.64 22.6833 282.6 26.23C282.6 27.23 282.94 27.62 283.91 27.55C286.22 27.39 285.27 29.16 285.45 30.22C285.66 31.49 284.97 31.82 283.82 31.78C282.08 31.72 280.33 31.72 278.59 31.78C277.4 31.83 276.92 31.44 276.96 30.19C277.06 27.77 277 25.32 277 22.88Z" fill="#E77B2C"/>
<path d="M300.19 6.60013C297.11 6.51013 294.76 4.82013 294.19 2.25013C294.03 1.56013 293.67 0.560132 294.8 0.430132C295.93 0.300132 297.28 -0.699868 298 0.900132C298.49 1.98013 298.93 2.90013 300.28 2.90013C301.63 2.90013 302.04 1.90013 302.55 0.900132C303.33 -0.659868 304.72 0.330132 305.79 0.460132C306.86 0.590132 306.54 1.58013 306.36 2.31013C305.974 3.62092 305.152 4.76063 304.03 5.54072C302.908 6.32081 301.553 6.69455 300.19 6.60013Z" fill="#E77B2C"/>
<path d="M58.29 35.2201L58.22 35.1201L58.31 35.1501L58.29 35.2201Z" fill="#E77B2C"/>
<path d="M35.16 42.5303L32.71 40.1103C32.585 39.3436 32.3243 38.6054 31.94 37.9303C31.74 37.3503 31.53 36.7803 31.33 36.2003C31.5057 36.0616 31.6297 35.8679 31.6823 35.6504C31.7349 35.4328 31.7129 35.2039 31.62 35.0003C31.62 34.6103 31.57 34.2203 31.55 33.8303C31.65 33.6003 31.76 33.3703 31.86 33.1503C31.989 32.991 32.0824 32.806 32.1342 32.6077C32.1859 32.4093 32.1947 32.2023 32.16 32.0003C32.3224 31.9322 32.4666 31.8272 32.5812 31.6935C32.6958 31.5598 32.7776 31.4012 32.82 31.2303L33.13 30.5703L33.88 29.8803L34.23 29.5303L34.91 28.8303C35.1258 28.831 35.3368 28.7664 35.5153 28.6451C35.6937 28.5237 35.8313 28.3512 35.91 28.1503L36.36 27.8403C36.57 27.9084 36.7922 27.9302 37.0114 27.9043C37.2306 27.8784 37.4417 27.8054 37.63 27.6903C37.7846 27.7205 37.9447 27.7033 38.0893 27.6408C38.2338 27.5783 38.3561 27.4736 38.44 27.3403H39.77L40.94 27.2803C41.58 27.5703 42.11 28.1903 42.94 28.0303C44.8736 28.9791 46.4029 30.59 47.25 32.5703L47.94 34.2703L47.88 35.4603C47.88 35.8903 47.88 36.3303 47.88 36.7703C47.78 37.0403 47.67 37.3203 47.57 37.6003L47.35 38.7503L47.11 39.2803C46.9177 39.3678 46.7544 39.5084 46.6393 39.6856C46.5241 39.8627 46.4619 40.069 46.46 40.2803L45.72 40.9803L45.39 41.3203L44.68 42.0603L44.02 42.4003C43.857 42.4419 43.7052 42.519 43.5755 42.6262C43.4459 42.7334 43.3415 42.868 43.27 43.0203C43.069 42.9926 42.8645 43.0077 42.6697 43.0645C42.475 43.1214 42.2945 43.2188 42.14 43.3503L41.41 43.7003L40.24 43.5603C39.81 43.5603 39.37 43.4003 39.06 43.8503L37.34 43.2303C36.665 42.8592 35.9249 42.6215 35.16 42.5303Z" fill="#244E58"/>
<path d="M47.22 32.6301C46.3729 30.6498 44.8436 29.0389 42.91 28.0901L39 23.8301C40.7 23.8301 51.47 34.5301 51.46 36.1401C49.75 35.2801 49 33.3101 47.22 32.6301Z" fill="#76BBBB"/>
<path d="M28 36.8403L37.83 46.7103C37.96 46.8403 38.3 47.0103 38.04 47.2503C37.78 47.4903 37.59 47.6703 37.29 47.4003C36.99 47.1303 36.42 46.6403 35.99 46.2403C33.62 44.0303 31.51 41.5503 28.99 39.4703C28.566 39.1949 28.2413 38.7911 28.0632 38.3179C27.8851 37.8447 27.8629 37.327 28 36.8403Z" fill="#76BBBB"/>
<path d="M42.32 24.0703C43.68 24.3203 51 31.6803 51.19 32.9703L42.32 24.0703Z" fill="#76BBBB"/>
<path d="M35.16 42.5303C35.9249 42.6383 36.6617 42.8929 37.33 43.2803C37.97 44.6303 39.27 45.4003 40.19 46.5103C40.4 46.7503 40.86 46.9803 40.56 47.3403C40.26 47.7003 39.81 47.5703 39.5 47.2303C38.08 45.6403 36.28 44.4003 35.16 42.5303Z" fill="#76BBBB"/>
<path d="M31.94 37.9301C32.3243 38.6052 32.585 39.3434 32.71 40.1101C30.82 39.0201 29.64 37.1101 28.03 35.7501C27.7 35.4601 27.51 35.0101 27.9 34.6801C28.29 34.3501 28.48 34.8501 28.71 35.0501C29.81 36.0001 30.62 37.2401 31.94 37.9301Z" fill="#76BBBB"/>
<path d="M33.33 45.4103C32.4472 45.0807 31.6495 44.5574 30.9954 43.8791C30.3413 43.2008 29.8474 42.3845 29.55 41.4903L29.7 41.3403C31.29 42.3403 32.33 43.8403 33.59 45.1503L33.33 45.4103Z" fill="#76BBBB"/>
<path d="M47.85 35.5201L47.91 34.3301C49.5262 35.2925 50.8287 36.7027 51.66 38.3901C49.73 37.7401 49.12 36.1901 47.85 35.5201Z" fill="#76BBBB"/>
<path d="M40.92 27.3403L39.75 27.4003C38.97 26.5603 38.18 25.7303 37.41 24.8903C37.19 24.6603 36.81 24.4103 37.16 24.0503C37.51 23.6903 37.82 23.9303 38.06 24.1903C39 25.2303 40.28 26.0003 40.92 27.3403Z" fill="#76BBBB"/>
<path d="M31.62 35.0002C31.7104 35.2027 31.731 35.4294 31.6785 35.6448C31.626 35.8602 31.5034 36.0521 31.33 36.1902C30.09 35.5202 29.39 34.2502 28.27 33.4502C27.87 33.1702 27.7 32.8102 28.06 32.4502C28.42 32.0902 28.66 32.5102 28.92 32.7202C29.83 33.4802 30.4 34.6402 31.62 35.0002Z" fill="#76BBBB"/>
<path d="M33.88 29.8899L33.13 30.5799C32.3 29.9781 31.5506 29.2723 30.9 28.4799C30.8278 28.4314 30.7687 28.366 30.7278 28.2892C30.6869 28.2125 30.6655 28.1269 30.6655 28.0399C30.6655 27.953 30.6869 27.8673 30.7278 27.7906C30.7687 27.7139 30.8278 27.6484 30.9 27.5999C31.19 27.3799 31.41 27.5999 31.63 27.8199C32.36 28.5199 33.12 29.1999 33.88 29.8899Z" fill="#76BBBB"/>
<path d="M45.71 41.0003L46.45 40.3003C47.262 40.8492 47.9811 41.5244 48.58 42.3003C48.83 42.5503 49.05 42.8903 48.74 43.2003C48.43 43.5103 48.13 43.2003 47.89 42.9603C47.2466 42.2199 46.5144 41.5616 45.71 41.0003Z" fill="#76BBBB"/>
<path d="M44.67 42.1101L45.38 41.3701L47.49 43.6801C47.69 43.9001 47.88 44.1401 47.6 44.4301C47.5473 44.4812 47.4842 44.5203 47.415 44.5447C47.3457 44.5692 47.2721 44.5784 47.199 44.5718C47.1259 44.5651 47.055 44.5428 46.9914 44.5062C46.9277 44.4697 46.8727 44.4199 46.83 44.3601C46.1 43.6201 45.39 42.8601 44.67 42.1101Z" fill="#76BBBB"/>
<path d="M39.05 43.9002C39.36 43.4502 39.8 43.5602 40.23 43.6102C40.59 45.0602 42.23 45.5002 43.01 47.2902C41 46.5402 40.08 45.1302 39.05 43.9002Z" fill="#76BBBB"/>
<path d="M34.91 28.8399L34.23 29.5399C33.57 28.8199 32.92 28.0999 32.23 27.3699C32 27.0999 31.8 26.7599 32.17 26.4799C32.54 26.1999 32.72 26.4799 32.91 26.6799C33.6766 27.3005 34.3501 28.0279 34.91 28.8399Z" fill="#76BBBB"/>
<path d="M43.26 43.0702C43.3315 42.9179 43.4359 42.7833 43.5655 42.6762C43.6952 42.569 43.847 42.4918 44.01 42.4502L45.83 44.5302C46.05 44.7902 46.34 45.0902 46.05 45.4302C45.76 45.7702 45.41 45.5102 45.18 45.2602C44.53 44.5402 43.64 44.0002 43.26 43.0702Z" fill="#76BBBB"/>
<path d="M38.42 27.3503C38.3361 27.4836 38.2138 27.5884 38.0693 27.6508C37.9247 27.7133 37.7646 27.7306 37.61 27.7003L34.61 24.6303C36.71 24.6003 37.38 26.2303 38.42 27.3503Z" fill="#76BBBB"/>
<path d="M31.86 33.1602C31.76 33.3802 31.65 33.6102 31.55 33.8402C30.44 33.4002 29.87 32.2902 28.89 31.6802C28.8157 31.631 28.7548 31.5641 28.7127 31.4856C28.6705 31.4071 28.6485 31.3193 28.6485 31.2302C28.6485 31.1411 28.6705 31.0534 28.7127 30.9749C28.7548 30.8963 28.8157 30.8295 28.89 30.7802C29.18 30.5202 29.42 30.7802 29.62 30.9602L31.86 33.1602Z" fill="#76BBBB"/>
<path d="M47.56 37.6601C47.66 37.3801 47.77 37.1001 47.87 36.8301C49.03 37.6901 50.29 38.4901 50.42 40.2401L47.56 37.6601Z" fill="#76BBBB"/>
<path d="M41.4 43.7499L42.13 43.3999C42.82 44.0999 43.52 44.7899 44.19 45.5099C44.44 45.7699 44.93 46.0599 44.36 46.5099C44.01 46.7699 43.76 46.6299 43.53 46.2599C43 45.2799 41.85 44.7899 41.4 43.7499Z" fill="#76BBBB"/>
<path d="M32.82 31.2403C32.7776 31.4112 32.6958 31.5698 32.5812 31.7035C32.4667 31.8372 32.3224 31.9423 32.16 32.0103C31.28 31.6403 30.8 30.8003 30.1 30.2103C29.81 29.9603 29.39 29.6103 29.83 29.2103C30.27 28.8103 30.46 29.3003 30.71 29.5203C31.39 30.1203 31.84 31.0003 32.82 31.2403Z" fill="#76BBBB"/>
<path d="M47.1 39.3401L47.34 38.8101C48.34 39.1901 48.82 40.0901 49.55 40.7401C49.79 40.9601 50.12 41.2801 49.76 41.6101C49.6958 41.6697 49.6189 41.7141 49.5351 41.7397C49.4512 41.7654 49.3627 41.7717 49.2761 41.7583C49.1894 41.7448 49.107 41.7119 49.0349 41.6619C48.9629 41.612 48.9031 41.5464 48.86 41.4701C48.28 40.7501 47.69 40.0501 47.1 39.3401Z" fill="#76BBBB"/>
<path d="M36.34 27.8501L35.89 28.1601C35.7 28.0401 35.43 27.9601 35.33 27.7901C34.83 26.9501 33.08 26.4901 33.78 25.5501C34.17 25.0301 35.23 26.6401 36.02 27.2501C36.19 27.3801 36.24 27.6501 36.34 27.8501Z" fill="#76BBBB"/>
<path d="M48 27.25C48.1701 27.2909 48.3243 27.381 48.4435 27.509C48.5627 27.6371 48.6414 27.7974 48.67 27.97L48.47 28.17L47.77 27.48L48 27.25Z" fill="#76BBBB"/>
<path d="M47.66 26.8804C47.77 27.0104 47.88 27.1304 48 27.2504L47.77 27.4804L47.4 27.1504L47.66 26.8804Z" fill="#76BBBB"/>
<path d="M47.29 26.5601L47.66 26.8901C47.5684 26.9717 47.4816 27.0585 47.4 27.1501C47.28 27.0301 47.17 26.9101 47.05 26.8001L47.29 26.5601Z" fill="#76BBBB"/>
<path d="M46.7 26.4501L46.56 26.1001L46.93 26.2101L46.7 26.4501Z" fill="#76BBBB"/>
<path d="M49.27 28.7803L49.49 28.9503C49.28 29.1803 49.28 28.9503 49.22 28.8203L49.27 28.7803Z" fill="#76BBBB"/>
<path d="M49.22 28.8201L48.8 28.5401L49 28.3501L49.27 28.7801L49.22 28.8201Z" fill="#76BBBB"/>
<path d="M29.55 41.4901C29.41 41.3901 29.25 41.2901 29.48 41.1201C29.48 41.1201 29.62 41.2701 29.7 41.3401L29.55 41.4901Z" fill="#76BBBB"/>
<path d="M47.05 26.8L46.7 26.44L46.93 26.21L47.29 26.56L47.05 26.8Z" fill="#76BBBB"/>
<path d="M48.8 28.5402L48.47 28.1702L48.67 27.9702L49 28.3502L48.8 28.5402Z" fill="#76BBBB"/>
<path d="M33.71 45.7399L33.33 45.4099C33.42 45.3299 33.5 45.2399 33.59 45.1499L33.95 45.4999L33.71 45.7399Z" fill="#76BBBB"/>
<path d="M34 45.5L34.13 45.84L33.76 45.74L34 45.5Z" fill="#76BBBB"/>
</g>
<defs>
<clipPath id="clip0_3_261">
<rect width="310.62" height="60.39" fill="white"/>
</clipPath>
</defs>
</svg>
